<svg width="20" height="20" viewBox="0 0 20 20" fill="none" xmlns="http://www.w3.org/2000/svg">
<g clip-path="url(#clip0_20_563)">
<path d="M5.26123 10.7698C5.28662 10.7701 5.31181 10.7653 5.33532 10.7557C5.35883 10.7461 5.38019 10.732 5.39815 10.714C5.41611 10.6961 5.4303 10.6747 5.43989 10.6512C5.44948 10.6277 5.45428 10.6025 5.454 10.5771V9.01206C5.45428 8.98666 5.44948 8.96147 5.43989 8.93796C5.4303 8.91445 5.41611 8.89309 5.39816 8.87513C5.3802 8.85718 5.35884 8.84299 5.33533 8.8334C5.31182 8.82381 5.28662 8.81901 5.26123 8.81929H3.6962C3.67081 8.81901 3.64562 8.82381 3.6221 8.8334C3.59859 8.84299 3.57723 8.85718 3.55927 8.87513C3.54132 8.89309 3.52713 8.91445 3.51754 8.93796C3.50795 8.96147 3.50315 8.98666 3.50343 9.01206V10.5771C3.50481 10.6286 3.52617 10.6775 3.56299 10.7135C3.59981 10.7494 3.64919 10.7697 3.70068 10.7699L5.26123 10.7698Z" fill="#C70E16"/>
<path d="M8.94212 10.7653C8.96751 10.7656 8.9927 10.7608 9.01622 10.7512C9.03973 10.7416 9.06109 10.7274 9.07904 10.7094C9.097 10.6915 9.11119 10.6701 9.12078 10.6466C9.13037 10.6231 9.13517 10.5979 9.13489 10.5725V9.00748C9.13517 8.98209 9.13037 8.95689 9.12078 8.93338C9.11119 8.90987 9.097 8.88851 9.07905 8.87055C9.06109 8.8526 9.03973 8.83841 9.01622 8.82882C8.9927 8.81923 8.96751 8.81443 8.94212 8.81471H7.37711C7.35172 8.81443 7.32652 8.81923 7.30301 8.82882C7.2795 8.83841 7.25814 8.8526 7.24018 8.87055C7.22223 8.88851 7.20804 8.90987 7.19845 8.93338C7.18886 8.9569 7.18406 8.98209 7.18434 9.00748V10.5725C7.18544 10.6233 7.2061 10.6717 7.24202 10.7076C7.27793 10.7435 7.32633 10.7642 7.37711 10.7653L8.94212 10.7653Z" fill="#C70E16"/>
<path d="M12.623 10.7653C12.6484 10.7656 12.6736 10.7608 12.6971 10.7512C12.7206 10.7416 12.742 10.7274 12.76 10.7094C12.7779 10.6915 12.7921 10.6701 12.8017 10.6466C12.8113 10.6231 12.8161 10.5979 12.8158 10.5725V9.00748C12.8161 8.98209 12.8113 8.95689 12.8017 8.93338C12.7921 8.90987 12.7779 8.88851 12.76 8.87055C12.742 8.8526 12.7206 8.83841 12.6971 8.82882C12.6736 8.81923 12.6484 8.81443 12.623 8.81471H11.058C11.0326 8.81443 11.0074 8.81923 10.9839 8.82882C10.9604 8.83841 10.939 8.8526 10.9211 8.87055C10.9031 8.88851 10.8889 8.90987 10.8794 8.93338C10.8698 8.9569 10.865 8.98209 10.8652 9.00748V10.5725C10.8663 10.6233 10.887 10.6717 10.9229 10.7076C10.9588 10.7435 11.0072 10.7642 11.058 10.7653H12.623Z" fill="#C70E16"/>
<path d="M8.94212 13.955C8.96751 13.9553 8.9927 13.9505 9.01622 13.9409C9.03973 13.9313 9.06109 13.9171 9.07905 13.8991C9.097 13.8812 9.11119 13.8598 9.12078 13.8363C9.13037 13.8128 9.13517 13.7876 9.13489 13.7622V12.1972C9.13517 12.1718 9.13037 12.1466 9.12078 12.1231C9.11119 12.0996 9.097 12.0782 9.07905 12.0603C9.06109 12.0423 9.03973 12.0281 9.01622 12.0185C8.9927 12.0089 8.96751 12.0041 8.94212 12.0044H7.37711C7.35172 12.0041 7.32652 12.0089 7.30301 12.0185C7.2795 12.0281 7.25814 12.0423 7.24018 12.0603C7.22223 12.0782 7.20804 12.0996 7.19845 12.1231C7.18886 12.1466 7.18406 12.1718 7.18434 12.1972V13.7622C7.18544 13.813 7.2061 13.8614 7.24202 13.8973C7.27793 13.9332 7.32633 13.9539 7.37711 13.955H8.94212Z" fill="#C70E16"/>
<path d="M12.623 13.955C12.6484 13.9553 12.6736 13.9505 12.6971 13.9409C12.7206 13.9313 12.742 13.9171 12.76 13.8991C12.7779 13.8812 12.7921 13.8598 12.8017 13.8363C12.8113 13.8128 12.8161 13.7876 12.8158 13.7622V12.1972C12.8161 12.1718 12.8113 12.1466 12.8017 12.1231C12.7921 12.0996 12.7779 12.0782 12.76 12.0603C12.742 12.0423 12.7206 12.0281 12.6971 12.0185C12.6736 12.0089 12.6484 12.0041 12.623 12.0044H11.058C11.0326 12.0041 11.0074 12.0089 10.9839 12.0185C10.9604 12.0281 10.939 12.0423 10.9211 12.0603C10.9031 12.0782 10.8889 12.0996 10.8794 12.1231C10.8698 12.1466 10.865 12.1718 10.8652 12.1972V13.7622C10.8663 13.813 10.887 13.8614 10.9229 13.8973C10.9588 13.9332 11.0072 13.9539 11.058 13.955H12.623Z" fill="#C70E16"/>
<path d="M14.7389 12.0044H16.3039C16.355 12.0044 16.4041 12.0247 16.4402 12.0609C16.4764 12.097 16.4967 12.146 16.4967 12.1972V13.7622C16.4967 13.8133 16.4764 13.8624 16.4402 13.8985C16.4041 13.9347 16.355 13.955 16.3039 13.955H14.7389C14.6878 13.955 14.6388 13.9347 14.6026 13.8985C14.5665 13.8624 14.5461 13.8133 14.5461 13.7622V12.1971C14.5461 12.146 14.5664 12.097 14.6026 12.0608C14.6387 12.0247 14.6878 12.0044 14.7389 12.0044Z" fill="#C70E16"/>
<path d="M5.26122 12.0044H3.69619C3.58972 12.0044 3.50342 12.0907 3.50342 12.1972V13.7622C3.50342 13.8687 3.58972 13.955 3.69619 13.955H5.26122C5.36769 13.955 5.45399 13.8687 5.45399 13.7622V12.1972C5.45399 12.0907 5.36769 12.0044 5.26122 12.0044Z" fill="#C70E16"/>
<path d="M8.94212 17.1401C8.96752 17.1404 8.99271 17.1356 9.01622 17.126C9.03973 17.1164 9.06109 17.1022 9.07905 17.0843C9.097 17.0663 9.11119 17.045 9.12078 17.0215C9.13037 16.998 9.13517 16.9728 9.1349 16.9474V15.3823C9.13517 15.3569 9.13037 15.3318 9.12078 15.3082C9.11119 15.2847 9.097 15.2634 9.07904 15.2454C9.06109 15.2275 9.03973 15.2133 9.01622 15.2037C8.9927 15.1941 8.96751 15.1893 8.94212 15.1896H7.37711C7.35172 15.1893 7.32653 15.1941 7.30302 15.2037C7.27951 15.2133 7.25814 15.2275 7.24019 15.2454C7.22223 15.2634 7.20804 15.2847 7.19845 15.3082C7.18886 15.3318 7.18406 15.3569 7.18434 15.3823V16.9474C7.18544 16.9982 7.2061 17.0465 7.24202 17.0825C7.27793 17.1184 7.32633 17.139 7.37711 17.1401H8.94212Z" fill="#C70E16"/>
<path d="M5.26121 17.1401C5.2866 17.1404 5.3118 17.1356 5.33531 17.126C5.35882 17.1164 5.38018 17.1022 5.39814 17.0843C5.41609 17.0663 5.43028 17.045 5.43987 17.0215C5.44946 16.998 5.45426 16.9728 5.45398 16.9474V15.3823C5.45426 15.3569 5.44946 15.3318 5.43987 15.3082C5.43028 15.2847 5.41609 15.2634 5.39813 15.2454C5.38018 15.2275 5.35882 15.2133 5.3353 15.2037C5.31179 15.1941 5.2866 15.1893 5.26121 15.1896H3.6962C3.67081 15.1893 3.64562 15.1941 3.62211 15.2037C3.5986 15.2133 3.57724 15.2275 3.55928 15.2454C3.54133 15.2634 3.52714 15.2847 3.51755 15.3082C3.50795 15.3318 3.50316 15.3569 3.50343 15.3823V16.9474C3.50453 16.9982 3.5252 17.0465 3.56111 17.0825C3.59703 17.1184 3.64542 17.139 3.6962 17.1401H5.26121Z" fill="#C70E16"/>
<path d="M14.7389 8.8147H16.3039C16.355 8.8147 16.4041 8.83501 16.4402 8.87116C16.4764 8.90731 16.4967 8.95634 16.4967 9.00747V10.5725C16.4967 10.6236 16.4764 10.6727 16.4402 10.7088C16.4041 10.745 16.355 10.7653 16.3039 10.7653H14.7389C14.6878 10.7653 14.6388 10.745 14.6026 10.7088C14.5665 10.6727 14.5461 10.6236 14.5461 10.5725V9.00742C14.5461 8.95631 14.5664 8.90729 14.6026 8.87114C14.6387 8.835 14.6878 8.8147 14.7389 8.8147Z" fill="#C70E16"/>
<path d="M11.058 15.1896H12.623C12.6483 15.1896 12.6734 15.1946 12.6968 15.2042C12.7202 15.2139 12.7414 15.2281 12.7593 15.246C12.7772 15.2639 12.7914 15.2852 12.8011 15.3086C12.8108 15.332 12.8158 15.357 12.8158 15.3823V16.9474C12.8158 16.9985 12.7955 17.0475 12.7593 17.0837C12.7232 17.1198 12.6741 17.1401 12.623 17.1401H11.058C11.0327 17.1401 11.0076 17.1351 10.9842 17.1255C10.9608 17.1158 10.9396 17.1016 10.9217 17.0837C10.9038 17.0658 10.8896 17.0445 10.8799 17.0211C10.8702 16.9978 10.8652 16.9727 10.8652 16.9474V15.3823C10.8652 15.3312 10.8855 15.2822 10.9217 15.246C10.9578 15.2099 11.0068 15.1896 11.058 15.1896Z" fill="#C70E16"/>
<path d="M18.5386 2.884H15.5875V1.50966C15.5875 1.2685 15.4917 1.03721 15.3211 0.866676C15.1506 0.696145 14.9193 0.600342 14.6781 0.600342C14.437 0.600342 14.2057 0.696145 14.0351 0.866676C13.8646 1.03721 13.7688 1.2685 13.7688 1.50966V2.884H6.23108V1.50966C6.23108 1.2685 6.13527 1.03721 5.96474 0.866676C5.79421 0.696145 5.56292 0.600342 5.32175 0.600342C5.08059 0.600342 4.8493 0.696145 4.67876 0.866676C4.50823 1.03721 4.41243 1.2685 4.41243 1.50966V2.884H1.4613C1.23278 2.88406 1.01364 2.97486 0.852057 3.13645C0.690472 3.29803 0.599668 3.51717 0.599609 3.74569V5.74284H19.4003V3.74569C19.4002 3.51717 19.3094 3.29803 19.1478 3.13645C18.9862 2.97486 18.7671 2.88406 18.5386 2.884Z" fill="#C70E16"/>
<path d="M0.599609 18.538C0.599667 18.7665 0.690471 18.9856 0.852056 19.1472C1.01364 19.3088 1.23278 19.3996 1.4613 19.3997H18.5386C18.7671 19.3996 18.9862 19.3088 19.1478 19.1472C19.3094 18.9856 19.4002 18.7665 19.4003 18.538V6.55511H0.599609V18.538ZM1.7216 7.67711H18.2783V18.2777H1.7216L1.7216 7.67711Z" fill="#C70E16"/>
</g>
<defs>
<clipPath id="clip0_20_563">
<rect width="20" height="20" fill="white"/>
</clipPath>
</defs>
</svg>
