<svg xmlns="http://www.w3.org/2000/svg" xmlns:xlink="http://www.w3.org/1999/xlink" viewBox="0,0,256,256" width="20px" height="20px" fill-rule="nonzero"><g fill="#c70e16" fill-rule="nonzero" stroke="none" stroke-width="1" stroke-linecap="butt" stroke-linejoin="miter" stroke-miterlimit="10" stroke-dasharray="" stroke-dashoffset="0" font-family="none" font-weight="none" font-size="none" text-anchor="none" style="mix-blend-mode: normal"><g transform="scale(9.84615,9.84615)"><path d="M13,0.1875c-7.07422,0 -12.8125,5.73828 -12.8125,12.8125c0,7.07422 5.73828,12.8125 12.8125,12.8125c7.07422,0 12.8125,-5.73828 12.8125,-12.8125c0,-7.07422 -5.73828,-12.8125 -12.8125,-12.8125zM11.9375,2.75c0.07031,-0.00781 0.14844,0.00391 0.21875,0c-0.18359,0.20703 -0.28125,0.47266 -0.28125,0.75v0.5c0,0.62109 0.50391,1.125 1.125,1.125c0.62109,0 1.125,-0.50391 1.125,-1.125v-0.5c0,-0.27734 -0.09766,-0.54297 -0.28125,-0.75c5.01953,0.40625 9,4.38672 9.40625,9.40625c-0.20703,-0.18359 -0.47266,-0.28125 -0.75,-0.28125h-0.5c-0.04297,-0.00391 -0.08203,-0.00391 -0.125,0c-0.62109,0.03516 -1.09766,0.56641 -1.0625,1.1875c0.03516,0.62109 0.56641,1.09766 1.1875,1.0625h0.5c0.27734,0 0.54297,-0.09766 0.75,-0.28125c-0.40625,5.01953 -4.38672,9 -9.40625,9.40625c0.18359,-0.20703 0.28125,-0.47266 0.28125,-0.75v-0.5c0.00781,-0.34766 -0.14062,-0.67969 -0.41016,-0.89844c-0.26953,-0.22266 -0.625,-0.30469 -0.96484,-0.22656c-0.52344,0.11719 -0.89062,0.58984 -0.875,1.125v0.5c0,0.27734 0.09766,0.54297 0.28125,0.75c-5.00781,-0.40625 -8.98828,-4.37109 -9.40625,-9.375c0.21094,0.17188 0.47656,0.26172 0.75,0.25h0.5c0.62109,0 1.125,-0.50391 1.125,-1.125c0,-0.62109 -0.50391,-1.125 -1.125,-1.125h-0.5c-0.04297,-0.00391 -0.08203,-0.00391 -0.125,0c-0.22656,0.00781 -0.44141,0.08594 -0.625,0.21875c0.42578,-4.91797 4.28906,-8.84375 9.1875,-9.34375zM13,6.0625c-0.45312,0 -0.64062,0.39453 -0.65625,0.625l-0.25,5.03125c-0.39844,0.28516 -0.65625,0.75391 -0.65625,1.28125c0,0.86719 0.69531,1.5625 1.5625,1.5625c0.05469,0 0.10156,-0.02734 0.15625,-0.03125l3.0625,2.71875c0.17188,0.15234 0.60547,0.26953 0.96875,-0.09375c0.36328,-0.36328 0.24219,-0.79297 0.09375,-0.96875l-2.71875,-3.125c0,-0.01953 0,-0.04297 0,-0.0625c0,-0.55469 -0.28516,-1.03125 -0.71875,-1.3125l-0.1875,-5c-0.01172,-0.23047 -0.20703,-0.625 -0.65625,-0.625z"></path></g></g></svg>