<svg width="20" height="22" viewBox="0 0 20 22" fill="none" xmlns="http://www.w3.org/2000/svg">
<path d="M4.16667 16.7647H5.35417L13.5 8.1397L12.3125 6.88235L4.16667 15.5074V16.7647ZM2.5 18.5294V14.7794L13.5 3.15441C13.6667 2.99264 13.8507 2.86764 14.0521 2.77941C14.2535 2.69117 14.4653 2.64706 14.6875 2.64706C14.9097 2.64706 15.125 2.69117 15.3333 2.77941C15.5417 2.86764 15.7222 3 15.875 3.17647L17.0208 4.41176C17.1875 4.57353 17.309 4.7647 17.3854 4.98529C17.4618 5.20588 17.5 5.42647 17.5 5.64706C17.5 5.88235 17.4618 6.10662 17.3854 6.31985C17.309 6.53309 17.1875 6.72794 17.0208 6.90441L6.04167 18.5294H2.5ZM12.8958 7.52206L12.3125 6.88235L13.5 8.1397L12.8958 7.52206Z" fill="#716666"/>
</svg>
