<svg width="19" height="25" viewBox="0 0 19 25" fill="none" xmlns="http://www.w3.org/2000/svg">
<mask id="mask0_10_213" style="mask-type:luminance" maskUnits="userSpaceOnUse" x="0" y="0" width="19" height="25">
<path d="M0.888916 0.68927H18.2222V24.8889H0.888916V0.68927Z" fill="white"/>
</mask>
<g mask="url(#mask0_10_213)">
<path fill-rule="evenodd" clip-rule="evenodd" d="M16.6962 16.0365C16.6857 16.0365 16.6857 16.026 16.6857 16.0139H16.6962C16.7066 16.026 16.7066 16.0365 16.6962 16.0365ZM16.5903 15.9931C16.5694 16.026 16.5156 16.0469 16.5052 16.0365C16.5052 16.026 16.4948 16.0139 16.4948 16.0035C16.4843 15.9931 16.4722 15.9826 16.4722 15.9722C16.4618 15.9618 16.4618 15.9184 16.4948 15.8872C16.5156 15.8559 16.5798 15.8559 16.5798 15.8872C16.5694 15.908 16.6215 15.9618 16.5903 15.9931ZM16.4409 16.2379C16.4305 16.2379 16.4201 16.2379 16.4201 16.2274L16.4305 16.217C16.4409 16.217 16.4409 16.217 16.4514 16.2274C16.4409 16.2274 16.4409 16.2379 16.4409 16.2379ZM16.3663 16.0573C16.3559 16.0365 16.3559 15.9722 16.3871 15.9618C16.4201 15.941 16.4201 15.9826 16.4201 16.026C16.4097 16.0677 16.3871 16.0885 16.3663 16.0573ZM16.2066 15.908C16.1649 15.8976 16.1319 15.8767 16.1319 15.8663H16.2066C16.25 15.8663 16.2916 15.8872 16.2916 15.908C16.2916 15.9288 16.2378 15.9288 16.2066 15.908ZM16.4843 15.7917C16.4843 15.7813 16.4948 15.7813 16.5052 15.7813V15.8021C16.5052 15.8021 16.5052 15.8125 16.4948 15.8125C16.4948 15.8125 16.4948 15.8125 16.4843 15.8021V15.7917ZM15.8906 17.3767C15.8472 17.3767 15.8576 17.3333 15.8906 17.3333C15.9218 17.3333 15.9218 17.3767 15.8906 17.3767ZM15.7309 17.0261C15.7205 17.0035 15.71 16.9722 15.7413 16.9618C15.7517 16.9618 15.7621 16.9618 15.7725 16.9826C15.7951 16.9931 15.7951 17.0139 15.7951 17.0261C15.783 17.0573 15.7517 17.0469 15.7309 17.0261ZM15.7725 17.1632C15.7517 17.1736 15.7413 17.1528 15.7517 17.1424C15.7621 17.132 15.783 17.1528 15.7725 17.1632ZM15.7309 17.0886C15.7205 17.0886 15.71 17.0573 15.7309 17.0573C15.7517 17.0573 15.7517 17.0886 15.7309 17.0886ZM15.625 17.1632C15.6024 17.1632 15.6024 17.132 15.6128 17.132C15.6354 17.132 15.6354 17.1632 15.625 17.1632ZM15.5607 17.2917C15.5278 17.3125 15.5069 17.3333 15.4757 17.3438C15.4323 17.3663 15.4218 17.3229 15.4861 17.2691C15.5399 17.2274 15.592 17.2691 15.5607 17.2917ZM15.368 16.9618C15.3472 16.9514 15.3576 16.9288 15.3906 16.941C15.4218 16.9514 15.401 16.9826 15.368 16.9618ZM15.3264 17.3663C15.3264 17.3559 15.3368 17.3559 15.3368 17.3559C15.3472 17.3663 15.3472 17.3663 15.3472 17.3767C15.3368 17.3767 15.3264 17.3767 15.3264 17.3663ZM15.283 17.2379C15.2621 17.217 15.2621 17.1962 15.2951 17.1962C15.3368 17.1962 15.3159 17.2483 15.283 17.2379ZM15.1771 17.2274C15.1562 17.2379 15.1458 17.2274 15.1562 17.217C15.1562 17.2066 15.1771 17.1962 15.1979 17.2066C15.2083 17.217 15.2083 17.2274 15.1771 17.2274ZM15.125 17.3438C15.1128 17.2917 15.1562 17.2917 15.1666 17.3438C15.1771 17.408 15.125 17.3976 15.125 17.3438ZM15.1128 17.6528C15.1024 17.6528 15.0816 17.6528 15.0607 17.6424C15.0399 17.6424 15.0278 17.632 15.0069 17.632C14.9861 17.6215 14.9757 17.6111 14.9757 17.5886C14.9861 17.5677 15.0173 17.5781 15.0712 17.5886C15.1128 17.599 15.1562 17.6424 15.1128 17.6528ZM15.0399 17.7708C14.9965 17.7483 15.0173 17.6962 15.0486 17.7066C15.0816 17.717 15.092 17.7917 15.0399 17.7708ZM15.0173 17.941C14.9965 17.941 14.9861 17.8976 15.0173 17.8976C15.0399 17.8976 15.0399 17.941 15.0173 17.941ZM14.9531 17.6962C14.9427 17.7066 14.9218 17.684 14.9323 17.6632C14.9427 17.6424 14.9757 17.6424 14.9757 17.6632C14.9861 17.6736 14.9757 17.6962 14.9531 17.6962ZM14.8576 16.5139C14.8576 16.4931 14.901 16.4826 14.901 16.5035C14.9114 16.5243 14.8576 16.5243 14.8576 16.5139ZM14.743 22.7622C14.7326 22.783 14.7118 22.7934 14.7014 22.7934C14.7014 22.7726 14.7014 22.7622 14.7118 22.7413C14.7222 22.7205 14.7552 22.7413 14.743 22.7622ZM14.5521 22.9757C14.5104 22.9757 14.4878 22.9219 14.5208 22.9115C14.5625 22.9011 14.5955 22.9757 14.5521 22.9757ZM14.4566 22.7205C14.4566 22.7083 14.4774 22.6875 14.4982 22.6875C14.5208 22.6771 14.5416 22.6771 14.5416 22.6771C14.5416 22.6771 14.5312 22.6979 14.5104 22.7083C14.4982 22.7309 14.467 22.7309 14.4566 22.7205ZM14.4566 22.4531C14.4774 22.4427 14.4878 22.4427 14.4982 22.4427V22.4636C14.4878 22.4757 14.4774 22.4861 14.467 22.4861C14.4462 22.4965 14.4357 22.4636 14.4566 22.4531ZM14.9965 17.4722C15.0069 17.5156 14.9757 17.5156 14.9653 17.4826C14.9653 17.4392 14.9965 17.4392 14.9965 17.4722ZM14.9861 16.8767C14.9861 16.8767 15.0069 16.8663 15.0069 16.8767C14.9965 16.8872 14.9861 16.8872 14.9861 16.8767ZM15.0069 17.3333C15.0069 17.3333 15.0069 17.3333 15.0173 17.3333L15.0278 17.3438C15.0278 17.3559 15.0278 17.3559 15.0173 17.3559C15.0069 17.3559 14.9965 17.3559 15.0069 17.3333ZM15.0069 16.5573C15.0399 16.5469 15.092 16.5469 15.1128 16.5677C15.1354 16.5781 15.1354 16.6215 15.1024 16.632C15.0712 16.632 15.0278 16.6215 14.9965 16.6094C14.9653 16.5885 14.9757 16.5677 15.0069 16.5573ZM15.1024 16.4514C15.1128 16.4618 15.092 16.4931 15.0816 16.4722C15.0607 16.4618 15.092 16.4392 15.1024 16.4514ZM15.1354 17.0677C15.1128 17.1111 15.0712 17.0781 15.0816 17.0469C15.1024 17.0035 15.1562 17.0261 15.1354 17.0677ZM15.1458 16.7483C15.1771 16.7274 15.1771 16.7587 15.1875 16.8125C15.1875 16.8542 15.1354 16.8872 15.125 16.8542C15.1128 16.8229 15.1128 16.7691 15.1458 16.7483ZM15.4965 17.0469C15.5069 17.0365 15.5278 17.0573 15.5278 17.0677C15.5173 17.0886 15.4861 17.0677 15.4965 17.0469ZM14.3177 22.9965C14.2864 23.0174 14.243 23.007 14.276 22.9636C14.2968 22.9219 14.2968 22.8802 14.3281 22.9011C14.3611 22.9219 14.3403 22.9757 14.3177 22.9965ZM14.2274 16.8386C14.184 16.8611 14.1528 16.9028 14.1215 16.9132C14.0989 16.9236 14.0677 16.9028 14.0885 16.882C14.1093 16.8611 14.0989 16.8073 14.0781 16.7639C14.0573 16.7326 14.0347 16.6476 14.0885 16.6267C14.1319 16.6042 14.184 16.658 14.1528 16.6684C14.1319 16.6788 14.1093 16.7326 14.1319 16.7639C14.1423 16.8073 14.217 16.7969 14.217 16.7639C14.2274 16.7326 14.2482 16.7222 14.2691 16.7535C14.2916 16.7761 14.2691 16.8281 14.2274 16.8386ZM14.1267 22.8906C14.0833 22.9011 14.0729 22.8472 14.1163 22.8472C14.1475 22.8368 14.158 22.8802 14.1267 22.8906ZM14.0955 22.8056C14.0521 22.783 14.0521 22.7205 14.1059 22.7413C14.158 22.7726 14.1371 22.816 14.0955 22.8056ZM14.1267 23.1458C14.0955 23.1667 14.0312 23.1875 14.0521 23.2205C14.0729 23.2517 14.0208 23.2309 13.9774 23.1875C13.9357 23.1354 13.9462 23.1129 13.9982 23.1024C14.0521 23.092 14.0955 23.0816 14.0955 23.0712C14.0955 23.0608 14.1163 23.0486 14.1371 23.0608C14.158 23.0608 14.1684 23.1233 14.1267 23.1458ZM13.8281 22.9531C13.8073 22.9115 13.8611 22.8802 13.8715 22.9219C13.8819 22.9636 13.8507 22.9965 13.8281 22.9531ZM13.7812 20.8715C13.7482 20.882 13.7378 20.8403 13.7708 20.7969C13.8021 20.7448 13.8437 20.7656 13.8229 20.7969C13.8021 20.8299 13.8021 20.8715 13.7812 20.8715ZM13.743 23.1458C13.7222 23.1354 13.7118 23.092 13.7222 23.0486C13.7222 23.007 13.776 22.9861 13.7968 23.0382C13.8177 23.092 13.7656 23.1563 13.743 23.1458ZM13.7656 22.4965C13.743 22.5382 13.7222 22.507 13.743 22.4757C13.7656 22.4427 13.7968 22.4636 13.7656 22.4965ZM13.7847 18.0816C13.7725 18.092 13.7517 18.0816 13.7517 18.0712C13.7621 18.0608 13.7847 18.0608 13.7847 18.0816ZM13.625 17.9861C13.6458 17.9549 13.6666 17.9115 13.6875 17.9011C13.71 17.8906 13.7413 17.9011 13.7413 17.9323C13.7309 17.9549 13.7847 17.9757 13.8264 17.9861C13.8698 17.9861 13.8698 18.0399 13.8368 18.0399C13.7951 18.0295 13.7517 18.0087 13.6979 18.0191C13.6562 18.0295 13.6024 18.0191 13.625 17.9861ZM13.5712 17.9011C13.5712 17.8802 13.6024 17.8594 13.6128 17.8802C13.6354 17.9011 13.6354 17.9236 13.625 17.9323C13.6024 17.9323 13.5712 17.9236 13.5712 17.9011ZM13.5069 17.8802C13.4757 17.9236 13.4427 17.9115 13.4531 17.8802C13.4757 17.8368 13.5382 17.8368 13.5069 17.8802ZM13.3871 20.4896C13.3229 20.4566 13.2812 20.3924 13.2916 20.3507C13.3125 20.3195 13.3437 20.3195 13.3333 20.3403C13.3229 20.3611 13.3229 20.4149 13.3559 20.4254C13.3767 20.4254 13.408 20.4462 13.4392 20.4896C13.4722 20.5313 13.4392 20.5313 13.3871 20.4896ZM13.3871 20.8403C13.3871 20.7761 13.4305 20.7865 13.4305 20.8403C13.4184 20.882 13.3767 20.8941 13.3871 20.8403ZM13.2621 17.7743C13.2725 17.7517 13.3159 17.7743 13.2934 17.8056C13.2725 17.8264 13.2517 17.7951 13.2621 17.7743ZM13.1875 17.849C13.1562 17.849 13.092 17.8264 13.0382 17.7951C12.9861 17.7639 13.0607 17.7309 13.125 17.7517C13.1979 17.7639 13.2205 17.8368 13.1875 17.849ZM13.1111 20.7969L13.0468 20.7761C13.0468 20.7656 13.0573 20.7656 13.0781 20.7656C13.0989 20.7552 13.1215 20.7448 13.1423 20.7448C13.1632 20.7448 13.1736 20.7448 13.1736 20.7552C13.1736 20.7761 13.1423 20.7969 13.1111 20.7969ZM13.1528 20.5521C13.1215 20.5747 13.0989 20.5417 13.1423 20.5208C13.1736 20.5 13.184 20.5417 13.1528 20.5521ZM13.1198 20.0382C13.0885 20.0695 13.0451 20.092 13.0555 20.059C13.0555 20.0278 13.0885 20.007 13.1198 19.9965C13.1528 19.9844 13.1528 20.007 13.1198 20.0382ZM13.0364 20.3611C13.026 20.3299 13.0034 20.2969 12.9826 20.3299C12.9618 20.3611 12.9184 20.3611 12.9288 20.3299C12.9392 20.3073 12.9514 20.2865 12.9514 20.2761C12.9514 20.2448 12.9288 20.2326 12.9184 20.2222C12.8871 20.2118 12.8437 20.2014 12.8437 20.1701C12.8333 20.1476 12.908 20.1372 12.9618 20.191C13.0139 20.2448 13.0781 20.2118 13.0781 20.2552L13.1111 20.3073C13.1319 20.3299 13.1215 20.382 13.0885 20.382C13.0677 20.3924 13.0468 20.382 13.0364 20.3611ZM13.0243 20.4636C12.993 20.4636 12.9705 20.4965 12.96 20.4965C12.9496 20.4965 12.9496 20.4531 12.993 20.4219C13.0243 20.3785 13.0451 20.4531 13.0243 20.4636ZM12.993 20.6545C12.9705 20.6337 12.96 20.592 12.9705 20.559C12.9705 20.5278 13.0034 20.5382 13.0139 20.5816C13.0243 20.6337 13.0034 20.6771 12.993 20.6545ZM12.908 20.5955C12.8541 20.6059 12.8125 20.5955 12.8229 20.5747C12.8229 20.5521 12.8333 20.5208 12.8333 20.5104C12.8229 20.5 12.8663 20.5 12.9184 20.5208C12.9618 20.5417 12.9618 20.5851 12.908 20.5955ZM12.8437 20.8142C12.8229 20.8142 12.8003 20.8142 12.7899 20.8038C12.7691 20.783 12.8437 20.7726 12.875 20.7622C12.908 20.7622 12.9288 20.7622 12.9392 20.7726C12.9496 20.7934 12.8975 20.8142 12.8437 20.8142ZM12.7587 20.6771C12.7587 20.6441 12.7899 20.6337 12.8107 20.6129C12.8229 20.592 12.875 20.6337 12.8541 20.6667C12.8229 20.7083 12.7587 20.7083 12.7587 20.6771ZM12.717 20.5625C12.717 20.5417 12.6962 20.5104 12.6736 20.5104C12.6528 20.5208 12.6319 20.4896 12.6528 20.4774C12.6736 20.467 12.6962 20.467 12.6962 20.467C12.7066 20.4462 12.717 20.4358 12.717 20.4254C12.717 20.4045 12.717 20.3715 12.7378 20.3611C12.7587 20.3611 12.7916 20.3924 12.7691 20.4045C12.7587 20.4149 12.7691 20.4462 12.7916 20.4566C12.8021 20.467 12.7916 20.4774 12.7691 20.4896L12.7378 20.5625C12.7274 20.5851 12.717 20.5851 12.717 20.5625ZM12.6666 17.9861C12.7309 18.0191 12.6875 18.0712 12.6354 18.0399C12.5816 18.0087 12.6128 17.9653 12.6666 17.9861ZM12.5677 19.8472C12.493 19.8681 12.4392 19.9219 12.408 19.9219C12.3646 19.9219 12.3212 19.9219 12.3212 19.8889C12.3333 19.8681 12.3854 19.8576 12.4288 19.8472L12.5139 19.8142C12.5451 19.7934 12.5781 19.7934 12.6093 19.783C12.6528 19.783 12.6406 19.8142 12.5677 19.8472ZM12.5347 20.5695C12.5034 20.6024 12.4496 20.559 12.4184 20.5278C12.3958 20.4965 12.4184 20.4844 12.4809 20.4965C12.5451 20.507 12.5781 20.5486 12.5347 20.5695ZM12.5139 20.8681C12.4809 20.8785 12.4496 20.8472 12.4496 20.8264C12.46 20.8038 12.493 20.7934 12.5139 20.8142C12.5347 20.8264 12.5347 20.8681 12.5139 20.8681ZM12.1632 19.6129C12.1406 19.559 12.1406 19.5278 12.1736 19.5382C12.1944 19.5382 12.184 19.5695 12.2048 19.6024C12.2257 19.6337 12.1944 19.6545 12.1632 19.6129ZM12.1736 20.3576C12.1198 20.3785 12.0781 20.3785 12.0781 20.3576C12.0659 20.3368 12.1093 20.3247 12.1528 20.3038C12.1944 20.2934 12.2361 20.3368 12.1736 20.3576ZM12.1441 23.7083C12.1232 23.7188 12.1024 23.7083 12.092 23.6875C12.0816 23.6563 12.059 23.6233 12.0382 23.6563C12.0173 23.6875 11.9739 23.6875 11.9861 23.6563C11.9965 23.6337 12.0069 23.6129 12.0069 23.6024C12.0069 23.5712 11.9861 23.559 11.9739 23.5486C11.9427 23.5382 11.8993 23.5278 11.8993 23.4965C11.8889 23.474 11.9635 23.4636 12.0173 23.5174C12.0712 23.5712 12.1337 23.5382 12.1337 23.5816L12.1666 23.6337C12.1875 23.6563 12.1771 23.7083 12.1441 23.7083ZM12.059 24.125C12.0278 24.158 11.9843 24.1788 11.9948 24.1458C11.9948 24.1146 12.0278 24.0938 12.059 24.0833C12.0903 24.0729 12.0903 24.0938 12.059 24.125ZM11.9427 23.7847C11.8784 23.7743 11.8455 23.7309 11.8559 23.7205C11.868 23.7101 11.8784 23.7101 11.8889 23.7205C11.9097 23.7413 11.9305 23.7413 11.9531 23.7309C11.9948 23.7309 12.0052 23.7847 11.9427 23.7847ZM11.835 23.816C11.8142 23.849 11.783 23.8906 11.8038 23.9132C11.8142 23.934 11.7708 23.9653 11.7396 23.934C11.7083 23.9011 11.75 23.8594 11.7604 23.8056C11.783 23.7535 11.8559 23.7743 11.835 23.816ZM11.6718 24.2934L11.6389 24.3681C11.6284 24.3889 11.618 24.3889 11.618 24.3681C11.618 24.3472 11.5972 24.3142 11.5764 24.3142C11.5538 24.3247 11.533 24.2934 11.5538 24.283C11.5764 24.2726 11.5972 24.2726 11.5972 24.2726C11.6076 24.25 11.618 24.2396 11.618 24.2292C11.618 24.2083 11.618 24.1754 11.6389 24.1649C11.6614 24.1649 11.6927 24.1979 11.6718 24.2083C11.6614 24.2188 11.6718 24.25 11.6927 24.2604C11.7031 24.2726 11.6927 24.283 11.6718 24.2934ZM11.3455 24.0087C11.3038 24.0087 11.2604 24.0087 11.2604 23.9757C11.2708 23.9549 11.3246 23.9445 11.3663 23.934L11.4531 23.9011C11.4843 23.8802 11.5156 23.8802 11.5486 23.8698C11.5903 23.8698 11.5798 23.9011 11.5052 23.934C11.4305 23.9549 11.3784 24.0087 11.3455 24.0087ZM11.3698 24.4288C11.3368 24.4618 11.2847 24.4184 11.2517 24.3872C11.2309 24.3542 11.2517 24.3438 11.3159 24.3542C11.3802 24.3663 11.4114 24.408 11.3698 24.4288ZM11.2239 21.25C11.2031 21.2274 11.1823 21.1962 11.1823 21.1528C11.1718 21.1215 11.1823 21.0677 11.2031 21.0677C11.2239 21.0573 11.2465 21.0903 11.2465 21.1111C11.2361 21.1424 11.2569 21.1528 11.2673 21.1528C11.2778 21.1528 11.2986 21.1754 11.2986 21.2066C11.2986 21.2379 11.2465 21.2604 11.2239 21.25ZM11.2673 20.4306C11.2361 20.4514 11.2048 20.441 11.2257 20.3993C11.2465 20.3559 11.2899 20.4097 11.2673 20.4306ZM11.151 20.25C11.1614 20.2292 11.1718 20.1754 11.2048 20.1545C11.2257 20.1441 11.2465 20.132 11.2673 20.1441C11.3003 20.1649 11.342 20.1754 11.3316 20.1962C11.3316 20.2066 11.3316 20.217 11.3107 20.217C11.2778 20.2292 11.2673 20.2396 11.2465 20.2604C11.2361 20.2708 11.2257 20.2813 11.2048 20.2917C11.1823 20.3038 11.1406 20.2813 11.151 20.25ZM11.1007 23.6997C11.0798 23.6458 11.0798 23.6146 11.1111 23.625C11.1337 23.625 11.1232 23.6563 11.1441 23.6892C11.1649 23.7205 11.1337 23.7413 11.1007 23.6997ZM11.1111 24.4445C11.059 24.4653 11.0156 24.4653 11.0156 24.4445C11.0052 24.4236 11.0486 24.4132 11.0903 24.3906C11.1337 24.3802 11.1753 24.4236 11.1111 24.4445ZM10.9739 24.0608C10.9531 24.0833 10.9305 24.0938 10.9097 24.0938C10.8784 24.0938 10.8784 24.0295 10.9097 24.0087C10.9201 23.9983 10.9409 23.9983 10.9635 23.9879C11.0156 23.9879 11.0156 24.0191 10.9739 24.0608ZM10.9739 24.3386C10.9531 24.3698 10.8993 24.3386 10.9201 24.3281C10.9409 24.3056 10.9635 24.2639 10.9409 24.2205C10.9201 24.1892 10.9635 24.1892 10.9843 24.2205C10.9948 24.2535 10.9948 24.3056 10.9739 24.3386ZM10.7778 21.2379C10.7569 21.2379 10.6927 21.2274 10.6823 21.1858C10.6718 21.1424 10.7569 21.132 10.7882 21.1632C10.8212 21.1962 10.7986 21.25 10.7778 21.2379ZM10.6284 21.0573C10.6389 21.0365 10.6493 21.0261 10.6718 21.0261C10.6927 21.0261 10.7135 21.0573 10.6927 21.0903L10.6614 21.1215C10.6284 21.1215 10.618 21.0781 10.6284 21.0573ZM10.7465 20.9931C10.7361 21.0156 10.6927 20.9826 10.6718 20.9306C10.6493 20.8767 10.6927 20.8663 10.7031 20.8976C10.7239 20.941 10.7673 20.9722 10.7465 20.9931ZM10.6493 20.4826C10.6718 20.4618 10.7135 20.4722 10.7239 20.4826C10.7361 20.5052 10.7361 20.5156 10.7239 20.5261C10.7239 20.5365 10.7031 20.5365 10.6927 20.5365C10.6718 20.5365 10.6493 20.5261 10.6493 20.5156C10.6389 20.5052 10.6493 20.4931 10.6493 20.4826ZM11.4166 21.3976C11.4166 21.441 11.3316 21.441 11.3316 21.3872C11.3316 21.3455 11.4062 21.3663 11.4166 21.3976ZM11.4166 20.9826C11.3837 20.9514 11.4271 20.908 11.4791 20.9184C11.533 20.941 11.5225 21.0035 11.5121 21.0156C11.4913 21.0261 11.4375 21.0261 11.4166 20.9826ZM11.4166 21.1528C11.3941 21.132 11.4166 21.1007 11.4479 21.1215C11.4791 21.1424 11.4375 21.1858 11.4166 21.1528ZM11.4201 23.7101C11.4635 23.7639 11.4948 23.8056 11.4843 23.8056C11.4739 23.816 11.4201 23.7951 11.3784 23.7413C11.3455 23.6892 11.3784 23.6684 11.4201 23.7101ZM11.4271 20.1754C11.4496 20.1754 11.4705 20.1754 11.4809 20.1858C11.5225 20.2066 11.5764 20.1858 11.5972 20.1962C11.6198 20.217 11.5972 20.2396 11.5451 20.2604C11.4913 20.2813 11.4496 20.2917 11.4166 20.2813L11.3854 20.25C11.375 20.217 11.3958 20.1754 11.4271 20.1754ZM11.5052 18.9549C11.5156 18.9011 11.5694 18.8698 11.6007 18.9011C11.6441 18.934 11.6337 18.9861 11.6007 19.0399C11.5694 19.092 11.4948 19.092 11.4843 19.0608C11.4739 19.0295 11.4948 18.9965 11.5052 18.9549ZM11.6614 20.3038C11.6823 20.3351 11.6614 20.3559 11.6076 20.3351C11.5555 20.3247 11.5347 20.3247 11.5764 20.3038C11.6198 20.2708 11.651 20.2708 11.6614 20.3038ZM11.908 20.6979C11.9392 20.7083 11.9705 20.7517 11.9809 20.8038C11.9809 20.8576 11.9288 20.8576 11.9184 20.8264C11.908 20.8038 11.8958 20.7934 11.875 20.783C11.8541 20.7726 11.8437 20.7517 11.8333 20.7413C11.8333 20.7083 11.875 20.6875 11.908 20.6979ZM11.9705 20.4844C11.9496 20.4531 11.993 20.4115 12.0243 20.4531C12.0555 20.4844 11.9809 20.5174 11.9705 20.4844ZM11.9809 20.2413C12.0034 20.2188 12.0243 20.1771 12.0034 20.1337C11.9809 20.1024 12.0243 20.1024 12.0451 20.1337C12.0555 20.1649 12.0555 20.2188 12.0347 20.2517C12.0139 20.283 11.96 20.2517 11.9809 20.2413ZM11.9705 19.9219C11.9809 19.9115 12.0034 19.9115 12.0243 19.8993C12.0781 19.8993 12.0781 19.9323 12.0347 19.974C12.0139 19.9965 11.993 20.007 11.9705 20.007C11.9392 20.007 11.9392 19.9427 11.9705 19.9219ZM12.4809 19.6233C12.5243 19.6771 12.5555 19.7188 12.5451 19.7188C12.5347 19.7292 12.4809 19.7083 12.4392 19.6545C12.408 19.6024 12.4392 19.5799 12.4809 19.6233ZM12.6875 17.6997C12.7083 17.7309 12.6979 17.7743 12.6771 17.7639C12.6562 17.7517 12.6354 17.7309 12.6232 17.6997C12.6128 17.6771 12.6666 17.6667 12.6875 17.6997ZM12.7621 17.8368C12.7725 17.8264 12.8055 17.8264 12.8055 17.849C12.8055 17.8698 12.7517 17.8594 12.7621 17.8368ZM12.8368 17.6354C12.8472 17.6458 12.8368 17.6667 12.8159 17.6563C12.8055 17.6563 12.8264 17.625 12.8368 17.6354ZM12.8472 18.0399C12.8055 18.0816 12.7621 18.0608 12.7725 18.0399C12.783 18.0191 12.8159 17.9861 12.8472 17.9757C12.8802 17.9653 12.8906 18.0087 12.8472 18.0399ZM12.8975 19.7292C12.875 19.7622 12.8437 19.8038 12.8646 19.8247C12.875 19.8472 12.8333 19.8785 12.8003 19.8472C12.7691 19.8142 12.8107 19.7726 12.8229 19.7188C12.8437 19.6667 12.9184 19.6875 12.8975 19.7292ZM12.9323 17.625C12.9427 17.625 12.9427 17.6563 12.9218 17.6563C12.9114 17.6563 12.9114 17.625 12.9323 17.625ZM13.0139 19.6441C13.0555 19.6441 13.0677 19.6979 13.0034 19.6979C12.9392 19.6875 12.908 19.6441 12.9184 19.6337C12.9288 19.6233 12.9392 19.6233 12.9496 19.6337C12.9705 19.6545 12.993 19.6545 13.0139 19.6441ZM13.0069 17.5295C13.0278 17.5191 13.0382 17.507 13.0503 17.5295C13.0607 17.5504 13.0503 17.5816 13.0173 17.5816C12.9965 17.5816 12.9965 17.5399 13.0069 17.5295ZM13.1024 17.6042C13.125 17.6146 13.1024 17.6458 13.0816 17.625C13.0712 17.6042 13.092 17.5816 13.1024 17.6042ZM13.4757 17.592C13.4757 17.6042 13.4531 17.6146 13.4427 17.6042C13.4427 17.592 13.4653 17.5712 13.4757 17.592ZM9.42011 19.3368C9.40969 19.349 9.38886 19.349 9.38886 19.349C9.35587 19.349 9.42011 19.3056 9.44268 19.2847C9.46351 19.2743 9.48435 19.2639 9.49476 19.2743C9.52601 19.2847 9.47393 19.316 9.42011 19.3368ZM9.43053 19.1563C9.46351 19.1788 9.47393 19.1997 9.46351 19.2205C9.4531 19.2309 9.40969 19.2309 9.39928 19.1892C9.38886 19.1563 9.39928 19.1354 9.43053 19.1563ZM9.10067 19.5191C9.06942 19.5504 9.00518 19.5087 9.03817 19.4861C9.059 19.4549 9.12324 19.4965 9.10067 19.5191ZM8.99476 19.6823C8.96351 19.6615 8.98435 19.6076 9.02775 19.6389C9.06942 19.6719 9.02775 19.7136 8.99476 19.6823ZM8.89928 19.7674C8.86803 19.7778 8.83678 19.809 8.84719 19.842C8.85761 19.8524 8.84719 19.8524 8.82462 19.842C8.80379 19.8212 8.77254 19.7778 8.78296 19.7465C8.79337 19.7344 8.81421 19.7344 8.83678 19.7344C8.89928 19.7465 8.93226 19.757 8.89928 19.7674ZM8.6024 19.8629C8.59199 19.8524 8.57983 19.842 8.57983 19.8316C8.56942 19.809 8.61282 19.7986 8.62324 19.8212C8.63365 19.8316 8.64407 19.8524 8.64407 19.8629C8.64407 19.8941 8.63365 19.8941 8.6024 19.8629ZM7.08678 22.9566C7.05553 22.9358 7.05553 22.9045 7.08678 22.9045C7.13018 22.9045 7.11976 22.967 7.08678 22.9566ZM7.05553 23.1476C7.04511 23.1267 7.06594 23.1059 7.08678 23.1267C7.10935 23.1476 7.06594 23.1701 7.05553 23.1476ZM6.93747 23.3924C6.90622 23.3924 6.91664 23.3403 6.93747 23.3507C6.97046 23.3611 6.97046 23.3924 6.93747 23.3924ZM6.88018 24.2986C6.86976 24.3195 6.79511 24.3299 6.78469 24.3299C6.74129 24.3403 6.79511 24.2986 6.79511 24.2986C6.80553 24.2882 6.8906 24.2882 6.88018 24.2986ZM6.70483 23.6372C6.69268 23.6372 6.69268 23.6059 6.71525 23.6059C6.73608 23.6163 6.72567 23.6493 6.70483 23.6372ZM6.69268 23.9792C6.68226 24 6.69268 24 6.69268 24.0104C6.69268 24.0208 6.70483 24.0851 6.70483 24.1267C6.69268 24.0955 6.63018 24.0313 6.63018 24.0313C6.60761 24.0104 6.55553 24 6.55553 23.967C6.54511 23.9358 6.56594 23.9462 6.58678 23.9566C6.65101 24.0104 6.65101 23.9358 6.67185 23.9149C6.67185 23.8924 6.67185 23.8715 6.70483 23.882C6.72567 23.8924 6.72567 23.9254 6.72567 23.9358C6.71525 23.9566 6.69268 23.9566 6.69268 23.9792ZM6.63018 24.3507C6.61976 24.3611 6.59719 24.3403 6.60761 24.3299C6.61976 24.3195 6.6406 24.3403 6.63018 24.3507ZM6.52254 24.0642C6.51212 24.0642 6.52254 24.0417 6.53469 24.0521C6.54511 24.0642 6.53469 24.0747 6.52254 24.0642ZM6.48087 23.5642C6.46004 23.5521 6.46004 23.5313 6.48087 23.5313C6.50171 23.5313 6.49129 23.5747 6.48087 23.5642ZM6.40622 23.9045C6.39581 23.9358 6.3524 23.9149 6.37497 23.8924C6.38539 23.8715 6.41664 23.8715 6.40622 23.9045ZM6.3958 23.1372C6.40622 23.1372 6.40622 23.1701 6.38539 23.1701C6.37497 23.1701 6.37497 23.1372 6.3958 23.1372ZM6.61629 23.7049C6.65969 23.7153 6.65969 23.7587 6.61629 23.7587C6.57462 23.7587 6.58504 23.7049 6.61629 23.7049ZM6.19268 23.9896C6.16143 24.0104 6.11803 24.0208 6.07636 24.0208C6.06594 24.0208 5.99129 24.0104 6.00171 24C6.07636 23.9462 5.92705 23.9358 5.97046 23.882C6.01212 23.8507 6.10761 23.9358 6.1406 23.9462C6.18226 23.967 6.27775 23.9566 6.19268 23.9896ZM5.9583 23.5851C5.97046 23.5747 6.00171 23.5851 5.99129 23.6059C5.98087 23.6267 5.94789 23.5955 5.9583 23.5851ZM5.9583 23.3507C5.97046 23.3403 5.99129 23.3611 5.98087 23.3715C5.9583 23.382 5.94789 23.3611 5.9583 23.3507ZM6.2031 23.5417C6.19268 23.5747 6.15101 23.6372 6.13018 23.5642C6.11803 23.5104 6.23608 23.4792 6.2031 23.5417ZM13.0764 10.9531C13.0225 10.9427 13.0017 10.8889 13.0555 10.8889C13.0972 10.8889 13.1406 10.8993 13.151 10.9427C13.1614 10.974 13.1302 10.9635 13.0764 10.9531ZM12.9913 11.059C12.96 11.0278 13.0017 10.9948 13.0225 11.0382C13.0451 11.0695 13.0121 11.1024 12.9913 11.059ZM12.7465 10.9427C12.7048 10.9219 12.7048 10.8681 12.7465 10.8785C12.8003 10.8993 12.7882 10.9635 12.7465 10.9427ZM12.6284 10.6233C12.5972 10.6024 12.5555 10.5486 12.5868 10.5174C12.618 10.4948 12.6614 10.5486 12.6823 10.5903C12.7048 10.6337 12.6614 10.6545 12.6284 10.6233ZM12.5555 10.7934C12.5121 10.8142 12.4913 10.7726 12.533 10.7396C12.5764 10.7188 12.5972 10.783 12.5555 10.7934ZM12.4809 10.559C12.46 10.559 12.4271 10.5695 12.4271 10.6024C12.4201 10.6233 12.4184 10.625 12.408 10.6129C12.4062 10.6215 12.4028 10.6285 12.3958 10.6337C12.3854 10.6441 12.3628 10.6441 12.342 10.6233C12.3003 10.5799 12.2673 10.5052 12.2882 10.4948C12.3003 10.4844 12.3212 10.4844 12.342 10.4948C12.3524 10.5052 12.3732 10.5174 12.3732 10.5278C12.3854 10.4948 12.4479 10.4948 12.4705 10.5174C12.4913 10.5382 12.4913 10.559 12.4809 10.559ZM12.3038 10.9826C12.2708 10.9705 12.2604 10.9184 12.3038 10.908C12.3559 10.908 12.3455 10.9931 12.3038 10.9826ZM12.2465 10.8472C12.2778 10.8142 12.3212 10.8472 12.2882 10.8681C12.2569 10.8993 12.2257 10.8681 12.2465 10.8472ZM12.1962 9.68404C12.1753 9.64063 12.2066 9.63022 12.2291 9.65279C12.2604 9.68404 12.2187 9.7257 12.1962 9.68404ZM12.151 10.6545C12.118 10.6545 12.0972 10.6129 12.1076 10.5903C12.118 10.5695 12.1614 10.559 12.1823 10.5903C12.1927 10.6129 12.1718 10.6649 12.151 10.6545ZM12.151 10.8993C12.1528 10.9184 12.1493 10.9445 12.1441 10.9705C12.1232 11.0035 12.1232 11.0573 12.0903 11.0885C12.0694 11.1094 12.0468 11.099 12.0364 11.0677C12.0364 11.0347 12.0694 10.9826 12.0903 10.9392C12.0955 10.9306 12.1007 10.9236 12.1041 10.9149C12.0903 10.9149 12.0729 10.9115 12.0555 10.8993L11.9809 10.8351C11.9479 10.7934 11.9913 10.7292 12.0225 10.7188C12.0434 10.7083 12.0555 10.7188 12.0659 10.75C12.0972 10.8038 12.0764 10.8576 12.1076 10.8472C12.1302 10.8472 12.1614 10.8472 12.1718 10.8681C12.1718 10.8767 12.1632 10.8889 12.151 10.8993ZM11.8784 9.47049C11.835 9.42883 11.8038 9.39758 11.835 9.39758C11.8559 9.38542 11.8993 9.41841 11.9305 9.44966C11.9514 9.48091 11.9305 9.50348 11.8784 9.47049ZM11.8524 10.8993C11.8212 10.9219 11.7778 10.8785 11.7986 10.8472C11.8212 10.8142 11.842 10.7934 11.8524 10.8038C11.8732 10.8247 11.8732 10.8785 11.8524 10.8993ZM11.7361 10.7292C11.7257 10.7083 11.7569 10.6649 11.7882 10.6771C11.8212 10.6875 11.842 10.7396 11.8212 10.7622C11.7986 10.7726 11.7882 10.7726 11.7673 10.7726C11.7569 10.7622 11.7465 10.75 11.7361 10.7292ZM11.6909 10.533C11.684 10.533 11.6788 10.5313 11.6718 10.5278C11.6614 10.5174 11.651 10.5052 11.651 10.4948C11.6284 10.474 11.6718 10.4427 11.6927 10.4427C11.7118 10.4514 11.7239 10.4618 11.7326 10.4705C11.7378 10.467 11.7448 10.4635 11.75 10.4601C11.8038 10.4184 11.8455 10.4601 11.7916 10.5035C11.7708 10.5139 11.75 10.5347 11.7396 10.5451C11.7187 10.5608 11.6962 10.5504 11.6909 10.533ZM11.6441 9.64063C11.6545 9.63022 11.6649 9.6198 11.6545 9.59897C11.6545 9.57813 11.6441 9.58855 11.6337 9.58855C11.6111 9.58855 11.6111 9.55556 11.6441 9.54515C11.6753 9.53473 11.7066 9.55556 11.7291 9.58855C11.7396 9.60938 11.7396 9.64063 11.7396 9.65279C11.7187 9.69445 11.6649 9.70487 11.6441 9.68404C11.6337 9.67362 11.6215 9.65279 11.6441 9.64063ZM11.6232 12.0434C11.5903 12.1181 11.5278 12.1181 11.4843 12.0955C11.4305 12.0851 11.4097 12.033 11.4427 11.9462C11.4739 11.8629 11.4843 11.7778 11.5052 11.7778C11.5278 11.7882 11.5382 11.8299 11.5278 11.8629C11.5052 11.9045 11.5694 11.9149 11.5903 11.9045C11.6128 11.8837 11.6545 11.9688 11.6232 12.0434ZM11.3524 10.474C11.3316 10.4948 11.3212 10.4635 11.3107 10.4323C11.2986 10.3993 11.3212 10.3681 11.342 10.3993C11.3732 10.4201 11.3837 10.4635 11.3524 10.474ZM11.1753 9.28994C11.1441 9.28994 11.1215 9.27952 11.1111 9.2691C11.0798 9.23785 11.1319 9.21529 11.1649 9.2257C11.1857 9.23785 11.2066 9.23785 11.217 9.23785C11.2396 9.2257 11.2812 9.23785 11.2916 9.2691C11.3142 9.28994 11.2604 9.27952 11.1753 9.28994ZM11.4583 10.2604C11.4809 10.2292 11.4809 10.2604 11.4913 10.3038C11.5017 10.3455 11.4913 10.3785 11.4687 10.3576C11.4479 10.3351 11.4375 10.283 11.4583 10.2604ZM11.5764 10.8889C11.5868 10.8889 11.5972 10.8889 11.6076 10.8993C11.618 10.8993 11.618 10.9219 11.618 10.9219C11.618 10.9323 11.618 10.9323 11.6076 10.9323C11.5868 10.9531 11.5764 10.9531 11.5538 10.9427C11.533 10.9219 11.5538 10.8889 11.5764 10.8889ZM12.0052 10.5347C12.026 10.5035 12.0694 10.5573 12.0364 10.5781C12.0156 10.6094 11.9843 10.5573 12.0052 10.5347ZM12.25 10.3333C12.2812 10.2899 12.3038 10.3229 12.2812 10.3542C12.2604 10.3976 12.2291 10.375 12.25 10.3333ZM12.3212 9.95313C12.342 9.93056 12.3628 9.94272 12.3732 9.96355C12.3732 9.9948 12.342 10.0382 12.3212 10.0156C12.2882 9.9948 12.3003 9.97397 12.3212 9.95313ZM12.3854 10.3785C12.3628 10.3993 12.342 10.3889 12.342 10.3681C12.3316 10.3351 12.3524 10.2934 12.3732 10.3038C12.3958 10.3142 12.4062 10.3576 12.3854 10.3785ZM12.5659 10.0052C12.5764 9.9948 12.5972 10.0278 12.6076 10.059C12.618 10.0903 12.5972 10.1024 12.5764 10.0695C12.5451 10.0382 12.5451 10.0156 12.5659 10.0052ZM10.7396 7.1632C10.7396 7.1632 10.7291 7.15279 10.7396 7.14237L10.75 7.13195C10.7604 7.14237 10.7604 7.14237 10.7604 7.15278C10.7708 7.1632 10.75 7.17362 10.7396 7.1632ZM10.7083 7.28126C10.6753 7.28126 10.6649 7.24827 10.6962 7.23785C10.7291 7.22744 10.75 7.28126 10.7083 7.28126ZM10.6649 7.44966C10.6441 7.48265 10.6232 7.47223 10.6337 7.42883C10.6545 7.38716 10.6857 7.41841 10.6649 7.44966ZM10.526 6.97223C10.4739 6.92883 10.5156 6.86459 10.5694 6.90799C10.6337 6.93924 10.5694 7.00348 10.526 6.97223ZM10.5364 7.20487C10.5486 7.20487 10.5486 7.23785 10.526 7.22744C10.5156 7.22744 10.5156 7.20487 10.5364 7.20487ZM10.5364 7.33334C10.5052 7.33334 10.4843 7.34376 10.4739 7.36459C10.4739 7.38716 10.4409 7.36459 10.4514 7.35417L10.4843 7.33334C10.4948 7.31251 10.5052 7.30209 10.526 7.30209C10.559 7.28994 10.5694 7.33334 10.5364 7.33334ZM10.4097 6.99306C10.3889 7.00348 10.3663 6.98265 10.3993 6.96181C10.4201 6.94966 10.4305 6.99306 10.4097 6.99306ZM10.3246 7.10938C10.3038 7.08855 10.3246 7.06772 10.3455 7.07813C10.3663 7.09897 10.3559 7.12154 10.3246 7.10938ZM10.2604 8.07119C10.2708 8.02779 10.283 7.96355 10.2708 7.92188C10.25 7.87848 10.3142 7.89931 10.3455 7.98612C10.368 8.07119 10.25 8.11285 10.2604 8.07119ZM10.1979 7.50695C10.1545 7.51737 10.1232 7.48612 10.1441 7.47397C10.1753 7.46355 10.2083 7.45313 10.2396 7.46355C10.2604 7.46355 10.283 7.48612 10.2708 7.50695C10.2604 7.51737 10.2291 7.49654 10.1979 7.50695ZM10.0382 7.65626C10.0052 7.63369 10.0156 7.57119 10.0486 7.57119C10.0903 7.5816 10.1337 7.61285 10.1337 7.6441C10.1441 7.67709 10.0798 7.66667 10.0382 7.65626ZM10.1007 8.23091C10.0903 8.25174 10.059 8.26216 10.0382 8.25174C10.0052 8.23091 10.0052 8.18751 10.026 8.18751C10.0486 8.19792 10.059 8.13369 10.026 8.13369C10.0052 8.13369 9.99476 8.12327 9.98435 8.12327C9.96351 8.10244 9.98435 8.05904 10.0052 8.05904C10.0156 8.04862 10.0382 8.04862 10.0486 8.05904C10.0694 8.07119 10.0903 8.11285 10.1007 8.1441C10.1128 8.16667 10.1128 8.20834 10.1007 8.23091ZM9.98435 8.31598C9.98435 8.3264 9.94094 8.31598 9.94094 8.29341C9.94094 8.28299 9.96351 8.27258 9.97393 8.28299C9.98435 8.29341 9.99476 8.30383 9.98435 8.31598ZM9.97046 10.3177C9.96004 10.3281 9.93747 10.3281 9.92706 10.3177C9.89581 10.3073 9.87324 10.2639 9.88539 10.2535C9.88539 10.2535 9.88713 10.2535 9.88713 10.2517C9.87324 10.1979 9.88365 10.1632 9.91317 10.1823C9.94442 10.1927 9.96699 10.2361 9.96699 10.2882C9.96699 10.2934 9.96525 10.2969 9.96525 10.3004C9.97046 10.3056 9.97393 10.3108 9.97046 10.3177ZM9.94789 14.3004C9.94789 14.3438 9.89407 14.3333 9.90449 14.3004C9.9149 14.2587 9.95831 14.2691 9.94789 14.3004ZM9.86803 8.40105C9.88886 8.39063 9.94094 8.40105 9.94094 8.44272C9.9531 8.48612 9.93053 8.51737 9.87844 8.50695C9.82463 8.48612 9.83504 8.42188 9.86803 8.40105ZM9.76733 10.382C9.75692 10.3611 9.75692 10.3281 9.77775 10.3073C9.7899 10.2865 9.81074 10.2969 9.83157 10.349C9.84199 10.3924 9.7899 10.4028 9.76733 10.382ZM9.73435 14.1632C9.69268 14.1632 9.67011 14.1094 9.68053 14.0885C9.68053 14.0781 9.73435 14.0451 9.7656 14.0781C9.79858 14.1094 9.77775 14.1528 9.73435 14.1632ZM9.67011 5.76737C9.67011 5.75522 9.69094 5.75522 9.69094 5.76737C9.69094 5.76737 9.67011 5.77779 9.67011 5.76737ZM9.61629 5.50001C9.61629 5.47917 9.62671 5.43751 9.65969 5.43751C9.68053 5.43751 9.68053 5.47917 9.65969 5.50001C9.64754 5.53299 9.62671 5.52258 9.61629 5.50001ZM9.63886 11.6945C9.62844 11.7274 9.59546 11.7483 9.58504 11.7379C9.57463 11.7274 9.57463 11.7049 9.58504 11.6945C9.58504 11.6736 9.62844 11.6424 9.63886 11.6528C9.63886 11.6632 9.64928 11.6736 9.63886 11.6945ZM9.56942 13.1007C9.52601 13.1215 9.48435 13.1649 9.44094 13.1424C9.39928 13.1215 9.37844 13.1215 9.37844 13.1545C9.37844 13.1858 9.33504 13.217 9.29338 13.2066C9.26039 13.2066 9.27081 13.1962 9.31421 13.1649C9.35588 13.1424 9.33504 13.0799 9.31421 13.1007C9.29338 13.1215 9.28122 13.1424 9.26039 13.132H9.21872C9.18574 13.132 9.12324 13.1545 9.059 13.1858C8.99476 13.217 8.96351 13.217 8.96351 13.1858C8.95136 13.1545 8.90969 13.1424 8.89928 13.1545C8.88886 13.1649 8.85587 13.1649 8.83504 13.1545C8.80379 13.132 8.81421 13.1007 8.83504 13.0903C8.86629 13.0799 8.82463 12.9722 8.73955 12.9306C8.64407 12.8976 8.65449 12.7917 8.70657 12.8351C8.73955 12.8663 8.76039 12.9097 8.80379 12.9097C8.84546 12.9097 8.85587 12.9514 8.87844 12.9948C8.90969 13.0469 8.96351 13.0695 8.96351 13.0469C8.95136 13.026 8.98435 13.026 9.00518 13.0573C9.03817 13.1007 9.07983 13.1215 9.11108 13.1111C9.13365 13.1007 9.13365 13.0573 9.11108 13.0573C9.09025 13.0573 9.07983 13.0573 9.06942 13.0365C9.059 13.0052 9.06942 12.9826 9.09025 12.9618C9.11108 12.9201 9.1649 12.9097 9.15449 12.941C9.15449 12.9722 9.17532 13.0156 9.22914 12.9948C9.28122 12.9722 9.33504 12.941 9.34546 12.9722C9.34546 13.0052 9.39928 13.0156 9.42011 13.0469C9.44094 13.0799 9.49476 13.0799 9.53817 13.0573C9.59025 13.0365 9.60067 13.0903 9.56942 13.1007ZM8.6215 14.5781C8.60935 14.5903 8.58851 14.5903 8.58851 14.5903C8.55726 14.5903 8.6215 14.5469 8.64233 14.526C8.66317 14.5156 8.684 14.5035 8.69442 14.5156C8.7274 14.526 8.67358 14.5573 8.6215 14.5781ZM8.46004 5.10765L8.38539 5.04341C8.3524 5.00174 8.3958 4.93751 8.42705 4.92709C8.44789 4.91667 8.46004 4.92709 8.47046 4.95834C8.50171 5.01216 8.48087 5.06598 8.51212 5.05383C8.53296 5.05383 8.56594 5.05383 8.57636 5.0764C8.57636 5.09723 8.52254 5.15105 8.46004 5.10765ZM8.35067 3.48612C8.35067 3.48612 8.40449 3.41147 8.4149 3.44445C8.4149 3.44445 8.37324 3.52952 8.36282 3.53994C8.34199 3.59202 8.34199 3.50695 8.35067 3.48612ZM8.34199 2.63542C8.36282 2.62501 8.37324 2.65626 8.36282 2.66667C8.34199 2.67709 8.32983 2.64584 8.34199 2.63542ZM8.32983 3.05035C8.31942 3.05035 8.309 3.02952 8.31942 3.01737C8.34199 3.00695 8.35067 3.03994 8.32983 3.05035ZM8.30205 14.7604C8.26907 14.7917 8.20483 14.7483 8.23782 14.7274C8.25865 14.6962 8.32289 14.7379 8.30205 14.7604ZM8.20483 14.8229H8.16317C8.14233 14.8229 8.13192 14.8125 8.11976 14.8021C8.10935 14.7708 8.13192 14.7604 8.16317 14.7708C8.19442 14.7813 8.2274 14.8125 8.20483 14.8229ZM8.11803 3.30556C8.15969 3.30556 8.17011 3.33681 8.11803 3.34723C8.07462 3.34723 8.07462 3.30556 8.11803 3.30556ZM8.11803 3.06077C8.12844 3.0816 8.10761 3.10244 8.08504 3.09202C8.05379 3.0816 8.10761 3.03994 8.11803 3.06077ZM7.90796 14.7483C7.80032 14.7813 7.74824 14.8333 7.76907 14.7708C7.79164 14.7066 7.88712 14.7066 7.96004 14.6858C8.03469 14.6632 8.01386 14.717 7.90796 14.7483ZM7.74997 13.651C7.73955 13.6285 7.73261 13.6042 7.7274 13.5816C7.71178 13.5729 7.71351 13.5521 7.72567 13.5486C7.72567 13.533 7.73435 13.5226 7.74997 13.5226C7.79164 13.5226 7.81247 13.5764 7.82289 13.5434C7.83504 13.5226 7.87671 13.533 7.90796 13.5017C7.93053 13.4688 7.94094 13.5122 7.89754 13.566C7.84546 13.6285 7.78122 13.7031 7.74997 13.651ZM7.684 13.3038C7.67358 13.283 7.69615 13.2726 7.70657 13.2934C7.71699 13.3264 7.7274 13.3472 7.73782 13.3472C7.74824 13.3576 7.74824 13.3576 7.74824 13.3785C7.74824 13.3785 7.74824 13.3889 7.73782 13.3889C7.7274 13.401 7.70657 13.3889 7.71699 13.3681C7.71699 13.3576 7.69615 13.3368 7.684 13.3038ZM7.67358 14.941C7.63192 14.9184 7.63192 14.8663 7.65275 14.8455C7.67358 14.8229 7.684 14.8559 7.69442 14.8976C7.70483 14.9306 7.71699 14.9618 7.67358 14.941ZM7.63192 14.4618C7.61976 14.4931 7.5781 14.5365 7.55726 14.526C7.54511 14.5156 7.55726 14.5035 7.56768 14.4931C7.5781 14.4722 7.59893 14.441 7.61976 14.441C7.63192 14.4306 7.64233 14.441 7.63192 14.4618ZM7.52601 13.6129C7.48261 13.6337 7.45136 13.5695 7.50344 13.5695C7.55726 13.5695 7.55726 13.6024 7.52601 13.6129ZM7.50344 12.7292C7.52601 12.7396 7.49303 12.7726 7.48261 12.7517C7.47219 12.7188 7.49303 12.7083 7.50344 12.7292ZM7.5781 13.1441C7.61108 13.1563 7.58851 13.1979 7.58851 13.2188C7.5781 13.2517 7.53643 13.2726 7.51386 13.2292C7.49303 13.1875 7.54685 13.1233 7.5781 13.1441ZM7.66317 13.507C7.65275 13.5174 7.64233 13.4965 7.64233 13.4861C7.65275 13.474 7.684 13.4965 7.66317 13.507ZM7.85414 13.2726C7.85414 13.283 7.85414 13.283 7.84372 13.283C7.8333 13.2726 7.8333 13.2622 7.84372 13.2622C7.84372 13.2517 7.86629 13.2622 7.85414 13.2726ZM7.84372 12.8993C7.87671 12.8993 7.94094 12.9844 7.88712 13.007C7.8333 13.0382 7.81247 13.007 7.86629 12.9844C7.90796 12.9635 7.88712 12.9323 7.84372 12.9323C7.80205 12.9427 7.80205 12.8993 7.84372 12.8993ZM7.82289 12.783C7.83331 12.783 7.84372 12.8038 7.82289 12.8038C7.81247 12.8142 7.81247 12.783 7.82289 12.783ZM7.88365 3.24133C7.89407 3.17883 7.95831 3.16667 7.94789 3.23091C7.93747 3.28473 7.87324 3.31598 7.88365 3.24133ZM7.96178 13.092C7.97219 13.059 8.00344 13.092 7.98261 13.1129C7.96178 13.1233 7.95136 13.1233 7.96178 13.092ZM8.15969 3.17883C8.17011 3.19966 8.14928 3.23091 8.12844 3.21008C8.10761 3.18924 8.14928 3.14584 8.15969 3.17883ZM8.17358 14.5035C8.11976 14.5035 8.11976 14.4722 8.14233 14.4306C8.16317 14.3872 8.17358 14.3767 8.19442 14.408C8.21699 14.441 8.21699 14.5035 8.17358 14.5035ZM8.19268 2.9323C8.21351 2.96528 8.2031 2.9757 8.17011 2.96528C8.13886 2.94445 8.15969 2.90105 8.19268 2.9323ZM8.27775 3.14584C8.28817 3.16667 8.26733 3.18924 8.25518 3.17883C8.23435 3.15626 8.26733 3.12501 8.27775 3.14584ZM8.29858 3.39063C8.29858 3.40105 8.25518 3.40105 8.26733 3.39063C8.26733 3.3698 8.28817 3.3698 8.29858 3.39063ZM8.51212 4.79862C8.52254 4.77778 8.56594 4.76737 8.58678 4.79862C8.59719 4.81945 8.57636 4.87327 8.55553 4.86285C8.52254 4.86285 8.50171 4.81945 8.51212 4.79862ZM8.75171 2.78647C8.77254 2.82813 8.6024 2.9132 8.57115 2.86112C8.56074 2.83855 8.74129 2.75348 8.75171 2.78647ZM8.8524 3.19445C8.84199 3.2691 8.77775 3.2257 8.75692 3.18403C8.73435 3.14063 8.8524 3.13022 8.8524 3.19445ZM8.69268 5.0764C8.66143 5.10765 8.63018 5.0764 8.65101 5.05383C8.68226 5.02258 8.72567 5.05383 8.69268 5.0764ZM8.69268 4.70313C8.70483 4.69272 8.72567 4.69272 8.7465 4.70313C8.75692 4.71355 8.77775 4.72397 8.77775 4.73438C8.80032 4.75695 8.83157 4.81945 8.80032 4.84202C8.7899 4.85244 8.76733 4.85244 8.7465 4.8316C8.70483 4.7882 8.67185 4.71355 8.69268 4.70313ZM8.72567 4.94792C8.76733 4.94792 8.81074 4.91667 8.83157 4.93751C8.8524 4.96876 8.82115 4.99133 8.77775 4.99133C8.7465 5.00174 8.70483 4.99133 8.67185 4.99133C8.65101 4.97917 8.68226 4.95834 8.72567 4.94792ZM8.78469 8.94272C8.77428 8.92188 8.81594 8.91147 8.82636 8.92188C8.82636 8.94272 8.79511 8.96355 8.78469 8.94272ZM8.72393 11.684C8.73435 11.6736 8.75518 11.6632 8.77601 11.6736C8.809 11.6945 8.81942 11.7049 8.809 11.717C8.78643 11.7483 8.70136 11.7049 8.72393 11.684ZM8.68053 11.8125C8.71178 11.8004 8.74476 11.8542 8.72393 11.8854C8.70136 11.9184 8.68053 11.9288 8.67011 11.8976C8.64928 11.8767 8.64928 11.8229 8.68053 11.8125ZM8.64233 14.2917C8.63192 14.2587 8.65275 14.2274 8.67358 14.2587C8.70657 14.2813 8.66317 14.3125 8.64233 14.2917ZM8.63539 8.85765C8.68921 8.86806 8.65622 8.92188 8.61455 8.89931C8.57115 8.87848 8.58157 8.84723 8.63539 8.85765ZM8.63192 14.3976C8.66317 14.4184 8.67358 14.441 8.66317 14.4618C8.65275 14.4722 8.60935 14.4722 8.59893 14.4306C8.58851 14.3976 8.59893 14.3767 8.63192 14.3976ZM8.90101 8.9323C8.8906 8.94272 8.88018 8.9323 8.88018 8.92188C8.8906 8.91147 8.91143 8.9323 8.90101 8.9323ZM9.00171 9.99827C8.99129 10.0191 8.97046 10.0087 8.9583 9.99827C8.93747 9.97744 8.97046 9.93404 8.99129 9.9566C9.00171 9.9566 9.01212 9.97744 9.00171 9.99827ZM9.00865 9.07119C9.00865 9.05904 9.01907 9.07119 9.01907 9.07119C9.01907 9.0816 8.9965 9.0816 9.00865 9.07119ZM8.91317 7.14931C8.99824 7.12848 9.04164 7.12848 9.01907 7.17188C8.99824 7.21355 8.94442 7.21355 8.89233 7.20313C8.84893 7.1823 8.80726 7.23438 8.83851 7.25695C8.85935 7.26737 8.83851 7.30903 8.81768 7.29862C8.78469 7.27778 8.74303 7.23438 8.75344 7.19272C8.75344 7.14931 8.75344 7.11806 8.73261 7.11806C8.69962 7.11806 8.65796 7.14931 8.63712 7.14931C8.60414 7.1389 8.61455 7.09723 8.63712 7.10765C8.65796 7.10765 8.68921 7.08681 8.72219 7.08681C8.75344 7.09723 8.83851 7.15973 8.91317 7.14931ZM8.99129 1.99653C9.01212 2.03994 8.9583 2.09376 8.92705 2.06077C8.88365 2.02952 8.9583 1.94445 8.99129 1.99653ZM8.97219 1.64237C9.02601 1.6198 9.02601 1.67362 8.98261 1.69445C8.92879 1.71528 8.91837 1.65278 8.97219 1.64237ZM9.03643 1.77952C9.05726 1.74827 9.0781 1.7691 9.06768 1.80035C9.05726 1.83334 9.01386 1.80035 9.03643 1.77952ZM9.11629 5.61806C9.15796 5.62848 9.20136 5.62848 9.18053 5.67015C9.17011 5.70313 9.14754 5.75522 9.11629 5.76737C9.0833 5.77779 9.06247 5.73438 9.0833 5.72397C9.10587 5.72397 9.10588 5.6823 9.07289 5.65973C9.04164 5.6389 9.07289 5.59549 9.11629 5.61806ZM9.10588 5.22397C9.11629 5.21355 9.13713 5.2448 9.12671 5.2448C9.10588 5.25522 9.09546 5.23438 9.10588 5.22397ZM9.13192 1.6198C9.15275 1.6198 9.14233 1.65278 9.1215 1.64237C9.08851 1.64237 9.11108 1.6198 9.13192 1.6198ZM9.15796 5.2882C9.19094 5.2448 9.20136 5.20313 9.22219 5.20313C9.24303 5.21355 9.23261 5.23438 9.23261 5.2448C9.22219 5.25522 9.21178 5.27778 9.22219 5.2882C9.23261 5.30903 9.22219 5.32987 9.20136 5.34028C9.19094 5.36285 9.13713 5.32987 9.15796 5.2882ZM9.28122 2.1389C9.35588 2.10765 9.39928 2.09549 9.38713 2.1389C9.37671 2.18056 9.37671 2.21355 9.35588 2.20313C9.33504 2.20313 9.30206 2.21355 9.27081 2.25522C9.26386 2.26737 9.25344 2.27258 9.2465 2.27431C9.24129 2.28473 9.22046 2.29341 9.21351 2.27605C9.20657 2.2639 9.21699 2.25348 9.22914 2.25522C9.2274 2.24306 9.2274 2.20313 9.19615 2.19272C9.1649 2.19272 9.21699 2.17015 9.28122 2.1389ZM9.38886 1.89758C9.42011 1.88716 9.46351 1.90799 9.49476 1.92883C9.5156 1.93924 9.54858 1.91841 9.53643 1.89758C9.53643 1.88716 9.56942 1.87674 9.559 1.89758C9.559 1.90799 9.54858 1.92883 9.54858 1.92883C9.54858 1.92883 9.52601 1.9514 9.48435 1.96181C9.44094 1.97223 9.38886 1.96181 9.36629 1.93924C9.33504 1.91841 9.34546 1.89758 9.38886 1.89758ZM9.37671 1.48785C9.38713 1.49827 9.40796 1.50869 9.42879 1.48785C9.44963 1.4757 9.46178 1.48785 9.44963 1.5191C9.43921 1.55035 9.39754 1.57292 9.37671 1.53994C9.34372 1.5191 9.36456 1.46528 9.37671 1.48785ZM9.54164 3.76737C9.53122 3.75695 9.55206 3.73612 9.56247 3.74653C9.56247 3.75695 9.55206 3.77779 9.54164 3.76737ZM9.46525 8.98438C9.47567 8.98438 9.47567 9.00695 9.45483 9.00695C9.434 9.00695 9.44442 8.97397 9.46525 8.98438ZM9.43574 5.73438C9.44615 5.72397 9.44615 5.72397 9.44615 5.73438C9.44615 5.75522 9.42532 5.7448 9.43574 5.73438ZM9.40449 11.4826C9.45831 11.4497 9.49997 11.4931 9.43574 11.5347C9.37324 11.5677 9.35067 11.5139 9.40449 11.4826ZM9.3715 5.08508C9.40275 5.08508 9.40275 5.11806 9.3715 5.10765C9.34025 5.10765 9.34025 5.07466 9.3715 5.08508ZM9.35067 5.46876C9.3281 5.42709 9.39233 5.38369 9.41317 5.42709C9.43574 5.46876 9.38192 5.50001 9.35067 5.46876ZM9.309 11.717C9.32983 11.717 9.35067 11.7274 9.36108 11.7379C9.38365 11.7587 9.36108 11.8004 9.32983 11.8004C9.31942 11.8004 9.309 11.7917 9.28817 11.7917C9.25518 11.7917 9.21351 11.8004 9.20136 11.7691C9.19094 11.7379 9.25518 11.717 9.309 11.717ZM9.12497 9.02779C9.11456 9.01737 9.14581 8.97397 9.16664 8.98438C9.19963 8.98438 9.21004 9.00695 9.19963 9.01737C9.17706 9.0382 9.14581 9.04862 9.12497 9.02779ZM9.07462 11.7917C9.06421 11.8004 9.05379 11.7917 9.04337 11.7795C9.03122 11.7691 9.07462 11.7379 9.08504 11.7587C9.09546 11.7691 9.09546 11.7795 9.07462 11.7917ZM9.11803 10.0313C9.16143 10.0417 9.16143 10.1163 9.10761 10.1163C9.05553 10.1267 9.07636 10.0191 9.11803 10.0313ZM9.44615 10.2014C9.46004 10.2309 9.47219 10.2691 9.4774 10.3108C9.49824 10.3958 9.42358 10.3733 9.41317 10.2778C9.40275 10.1823 9.36976 10.1285 9.40275 10.1389V10.1406C9.40449 10.1337 9.40969 10.1285 9.41664 10.1267C9.43747 10.1163 9.44789 10.1163 9.47046 10.1267C9.49129 10.1267 9.51213 10.1892 9.53296 10.2222C9.54511 10.2535 9.55553 10.2865 9.54511 10.3073C9.53296 10.3281 9.51213 10.3385 9.49129 10.3385C9.47046 10.3281 9.48088 10.2639 9.48088 10.2326C9.47219 10.2135 9.46178 10.2031 9.44615 10.2014ZM9.55206 3.02258C9.55206 3.01216 9.56247 3.01216 9.57289 3.02258C9.57289 3.03299 9.55206 3.03299 9.55206 3.02258ZM9.61976 3.39931C9.61976 3.39931 9.61976 3.40973 9.60935 3.40973H9.59893C9.59893 3.39931 9.59893 3.39931 9.60935 3.38716C9.60935 3.38716 9.61976 3.38716 9.61976 3.39931ZM9.60588 3.11806C9.62671 3.12848 9.63713 3.1389 9.64754 3.15105C9.66838 3.17188 9.63713 3.22397 9.60588 3.20313C9.57289 3.19272 9.55206 3.15105 9.57289 3.12848C9.57289 3.11806 9.58331 3.11806 9.60588 3.11806ZM9.62324 2.94619C9.62324 2.9132 9.68747 2.9132 9.66664 2.94619C9.65622 2.98785 9.62324 2.97744 9.62324 2.94619ZM9.63713 5.21355C9.61629 5.19272 9.64754 5.15973 9.67011 5.18056C9.69094 5.20313 9.64754 5.23438 9.63713 5.21355ZM9.65796 3.53299C9.63713 3.52258 9.64754 3.49133 9.67879 3.49133C9.70136 3.50174 9.67879 3.54341 9.65796 3.53299ZM9.62324 1.12153C9.63365 1.11112 9.65449 1.12153 9.65449 1.12153C9.65449 1.12153 9.65449 1.1007 9.66664 1.09028C9.67706 1.07813 9.69789 1.09028 9.68747 1.1007C9.67706 1.11112 9.65449 1.11112 9.65449 1.12153L9.63365 1.14237C9.61282 1.15278 9.6024 1.12153 9.62324 1.12153ZM9.75344 3.35244C9.74303 3.37327 9.72219 3.36285 9.72219 3.35244C9.72219 3.3316 9.75344 3.34202 9.75344 3.35244ZM9.79858 1.55903C9.78817 1.57987 9.75692 1.57987 9.75692 1.54862C9.76733 1.52605 9.79858 1.52605 9.79858 1.55903ZM9.81768 3.03299C9.8281 3.03299 9.8281 3.05383 9.80726 3.06424C9.79685 3.06424 9.80726 3.03299 9.81768 3.03299ZM9.83157 0.82466C9.8524 0.791673 9.88365 0.814243 9.86282 0.845493C9.84199 0.878479 9.82115 0.855909 9.83157 0.82466ZM9.78122 6.87674C9.78122 6.87674 9.79164 6.88716 9.80379 6.88716C9.80379 6.89758 9.80379 6.89758 9.79164 6.89758C9.79164 6.90799 9.77081 6.90799 9.77081 6.89758C9.77081 6.88716 9.77081 6.87674 9.78122 6.87674ZM9.81768 3.61806C9.8281 3.6389 9.80726 3.64931 9.79685 3.6389C9.77601 3.61806 9.80726 3.59723 9.81768 3.61806ZM9.78643 5.14931C9.7656 5.1389 9.77601 5.11806 9.78643 5.11806C9.80726 5.11806 9.79685 5.14931 9.78643 5.14931ZM9.92011 7.02431C9.93053 7.0573 9.89928 7.09897 9.86629 7.09897C9.84546 7.09897 9.82463 7.06772 9.83504 7.04688C9.83504 7.02431 9.81421 7.0139 9.78122 7.03473C9.76039 7.06772 9.73955 7.04688 9.76039 7.0139C9.79164 6.98265 9.83504 7.0139 9.83504 7.0139C9.83504 7.0139 9.84546 7.00348 9.85588 7.00348C9.87844 6.99306 9.89928 7.00348 9.92011 7.02431ZM9.8715 5.64931C9.89233 5.64931 9.89233 5.67015 9.8715 5.67015C9.86108 5.67015 9.86108 5.64931 9.8715 5.64931ZM9.94615 5.22397C9.9774 5.22397 10.0104 5.20313 10.0312 5.20313C10.0625 5.19272 10.0625 5.23438 10.0416 5.23438C10.0208 5.23438 9.99997 5.23438 10.0104 5.25522C10.0208 5.27778 10.0104 5.27779 9.9774 5.26737C9.94615 5.26737 9.92532 5.23438 9.94615 5.22397ZM9.9774 5.57466C9.98782 5.57466 9.99997 5.57466 9.99997 5.58508C9.99997 5.59549 9.98782 5.60765 9.98782 5.60765H9.96699C9.95657 5.59549 9.96699 5.57466 9.9774 5.57466ZM10.0052 7.81598C10.026 7.81598 10.059 7.83681 10.0903 7.83681C10.1232 7.84723 10.1128 7.89931 10.059 7.91147C9.99476 7.91147 9.9531 7.89063 9.96351 7.85765C9.97393 7.83681 9.98435 7.81598 10.0052 7.81598ZM10.0712 7.19445C10.0816 7.19272 10.0903 7.19445 10.0903 7.20487C10.0903 7.21702 10.0833 7.23091 10.0729 7.2448C10.0781 7.2691 10.085 7.28647 10.0694 7.29341C10.0503 7.3073 10.0416 7.29167 10.0364 7.2691C9.99476 7.2691 9.96351 7.20487 9.95136 7.17362C9.95136 7.14237 9.97393 7.07813 10.0052 7.07813C10.0364 7.06772 10.026 7.09897 10.0052 7.14237C9.98782 7.17883 10.0069 7.21355 10.026 7.21702C10.026 7.17535 10.0156 7.13369 10.0382 7.13369C10.0555 7.13369 10.0746 7.15973 10.0712 7.19445ZM10.2396 7.23785C10.25 7.21702 10.2708 7.24827 10.25 7.24827C10.2396 7.25869 10.2291 7.24827 10.2396 7.23785ZM10.2396 7.03473C10.25 7.0573 10.2187 7.07813 10.1962 7.0573C10.1857 7.04688 10.2291 7.0139 10.2396 7.03473ZM10.1528 6.79515C10.1423 6.80556 10.1198 6.80556 10.1111 6.79167C10.1111 6.78299 10.1284 6.77084 10.1406 6.77084C10.1389 6.76737 10.1354 6.7639 10.1337 6.76216C10.1128 6.73959 10.1007 6.69792 10.1337 6.67709C10.1649 6.65452 10.1979 6.67709 10.2083 6.72917C10.2083 6.78299 10.2187 6.84723 10.1979 6.87848C10.1753 6.92188 10.1441 6.89931 10.1545 6.86806C10.1614 6.84723 10.1597 6.81945 10.1528 6.79515ZM10.1163 5.59549C10.1267 5.60765 10.1475 5.61806 10.1701 5.62848L10.2118 5.64931C10.2222 5.64931 10.2222 5.64931 10.2326 5.6389C10.2326 5.6389 10.2448 5.60765 10.2326 5.57466C10.2118 5.53299 10.1909 5.51216 10.2448 5.52258C10.2864 5.52258 10.2968 5.59549 10.276 5.60765C10.2656 5.62848 10.2552 5.64931 10.2552 5.65973C10.2552 5.6823 10.2222 5.69272 10.2222 5.6823C10.2118 5.65973 10.2222 5.64931 10.2118 5.64931H10.1701C10.1475 5.65973 10.1163 5.64931 10.1163 5.6389C10.1163 5.62848 10.1163 5.61806 10.1059 5.61806C10.0955 5.60765 10.1059 5.58508 10.1163 5.59549ZM10.1805 5.17015C10.2014 5.17015 10.2014 5.20313 10.1805 5.19272C10.158 5.19272 10.158 5.17015 10.1805 5.17015ZM10.276 5.42709C10.2864 5.41494 10.2864 5.43751 10.276 5.43751C10.276 5.43751 10.2656 5.42709 10.276 5.42709ZM10.3038 6.47397C10.335 6.45313 10.368 6.48438 10.335 6.51737C10.3038 6.54862 10.2604 6.4948 10.3038 6.47397ZM10.4843 7.10938C10.4843 7.08855 10.5156 7.08855 10.5156 7.12153C10.5052 7.15278 10.4739 7.14237 10.4843 7.10938ZM7.36455 14.7604C7.33331 14.7917 7.2899 14.8125 7.30032 14.7813C7.30032 14.7483 7.33331 14.7274 7.36455 14.717C7.39754 14.7066 7.39754 14.7274 7.36455 14.7604ZM7.29337 13.5313C7.30379 13.5208 7.32462 13.5313 7.32462 13.5521C7.31421 13.5625 7.28296 13.5521 7.29337 13.5313ZM7.24824 14.4184C7.184 14.408 7.15275 14.3663 7.16317 14.3559C7.17358 14.3455 7.184 14.3455 7.19442 14.3559C7.21525 14.3767 7.23782 14.3767 7.25865 14.3663C7.30032 14.3663 7.31247 14.4184 7.24824 14.4184ZM7.14233 14.4514C7.11976 14.4826 7.08851 14.526 7.10935 14.5469C7.11976 14.5677 7.0781 14.6007 7.04511 14.5677C7.01386 14.5365 7.05726 14.4931 7.06768 14.441C7.08851 14.3872 7.16317 14.408 7.14233 14.4514ZM7.00518 13.882C6.98435 13.882 6.97393 13.8611 6.98435 13.8507C6.99476 13.8403 7.00518 13.8403 7.01733 13.8403C7.02775 13.8403 7.02775 13.8611 7.02775 13.8715C7.01733 13.882 7.01733 13.882 7.00518 13.882ZM7.06942 13.7535C7.06942 13.7656 7.04858 13.7656 7.04858 13.7535C7.04858 13.7431 7.06942 13.7431 7.06942 13.7535ZM7.06768 12.7292C7.09893 12.7517 7.11108 12.783 7.0781 12.8038C7.05726 12.8142 7.03643 12.7934 7.02428 12.7726C7.01386 12.7396 7.03643 12.6979 7.06768 12.7292ZM7.13365 13.8507C7.13365 13.8611 7.1024 13.8611 7.1024 13.8507C7.1024 13.8403 7.13365 13.8403 7.13365 13.8507ZM6.95483 15.4045C6.94442 15.467 6.92358 15.5313 6.91317 15.5747C6.89233 15.6267 6.80726 15.6476 6.78469 15.6476C6.75344 15.6372 6.75344 15.6059 6.76386 15.5851C6.78469 15.5625 6.81768 15.5521 6.81768 15.5747C6.81768 15.5955 6.88018 15.5747 6.85935 15.5104C6.83851 15.4566 6.81768 15.4045 6.79511 15.4149C6.78469 15.4358 6.75344 15.3715 6.79511 15.3507C6.83851 15.3299 6.90275 15.3073 6.88018 15.276C6.85935 15.2448 6.80726 15.2326 6.76386 15.2222C6.73261 15.2118 6.78469 15.1806 6.83851 15.1806C6.90275 15.1806 6.96525 15.3073 6.95483 15.4045ZM6.70483 14.7708C6.70483 14.8021 6.66317 14.8455 6.63018 14.8559C6.61976 14.8663 6.59893 14.8767 6.58851 14.8872L6.55553 14.908C6.54511 14.908 6.52428 14.908 6.51386 14.8976C6.49303 14.8767 6.48087 14.8229 6.46004 14.7917C6.44962 14.7604 6.44962 14.7379 6.44962 14.717C6.46004 14.6858 6.50344 14.6962 6.54511 14.7066C6.59893 14.7274 6.65275 14.7604 6.684 14.7274C6.69442 14.717 6.71525 14.7379 6.70483 14.7708ZM6.40796 14.3333C6.38539 14.2813 6.38539 14.2483 6.41837 14.2587C6.43921 14.2587 6.42879 14.2917 6.44962 14.3229C6.47046 14.3559 6.43921 14.3767 6.40796 14.3333ZM6.23955 13.5417C6.2083 13.5417 6.19789 13.4983 6.22914 13.4879C6.26039 13.4879 6.28296 13.5313 6.23955 13.5417ZM6.67358 14.5677L6.75865 14.5365C6.7899 14.5156 6.82289 14.5156 6.85414 14.5035C6.89754 14.5035 6.88539 14.5365 6.81074 14.5677C6.73782 14.5903 6.684 14.6424 6.65275 14.6424C6.60935 14.6424 6.56768 14.6424 6.56768 14.6111C6.5781 14.5903 6.63018 14.5781 6.67358 14.5677ZM6.6024 13.776C6.63365 13.7535 6.62324 13.7222 6.64407 13.7431C6.6649 13.7535 6.67532 13.8073 6.63365 13.8281C6.6024 13.8507 6.56942 13.7969 6.6024 13.776ZM6.6215 12.7934C6.64233 12.8038 6.6215 12.8247 6.59893 12.8142C6.5781 12.8038 6.60935 12.7726 6.6215 12.7934ZM6.66317 12.8472C6.66317 12.8681 6.65275 12.8889 6.63192 12.8889C6.6215 12.8993 6.60935 12.8785 6.6215 12.8576C6.63192 12.8472 6.65275 12.8368 6.66317 12.8472ZM6.66317 12.6875C6.67358 12.7083 6.66317 12.7188 6.65275 12.7083C6.63192 12.6875 6.65275 12.6649 6.66317 12.6875ZM6.72567 14.3455C6.76907 14.3976 6.80032 14.441 6.7899 14.441C6.77949 14.4514 6.72567 14.4306 6.684 14.3767C6.65275 14.3229 6.684 14.3021 6.72567 14.3455ZM6.71699 12.7726C6.7274 12.7934 6.684 12.8038 6.684 12.7726C6.684 12.7517 6.70657 12.7396 6.71699 12.7726ZM6.7083 13.6806C6.69789 13.691 6.67532 13.658 6.69789 13.6476C6.70831 13.6372 6.72914 13.658 6.7083 13.6806ZM6.76907 12.9844C6.79164 13.0278 6.75865 13.059 6.73782 13.059C6.71699 13.0486 6.69442 13.0174 6.71699 12.9844C6.7274 12.9635 6.74824 12.9531 6.76907 12.9844ZM6.74824 12.6337C6.76907 12.6129 6.79164 12.6337 6.78122 12.6545C6.76907 12.6771 6.73782 12.6545 6.74824 12.6337ZM6.82462 13.7656C6.82462 13.7326 6.85761 13.7431 6.85761 13.7656C6.84719 13.7865 6.81421 13.7969 6.82462 13.7656ZM5.72567 19.1302C5.68226 19.1094 5.6406 19.184 5.67185 19.1945C5.70483 19.2049 5.7465 19.2587 5.71525 19.3108C5.68226 19.3646 5.61976 19.375 5.6406 19.3438C5.66143 19.3108 5.6406 19.3004 5.59719 19.3108C5.56594 19.3333 5.50171 19.3004 5.48087 19.3004C5.46004 19.2899 5.43747 19.2899 5.42705 19.3004C5.40622 19.3004 5.3958 19.3212 5.3958 19.3333C5.3958 19.3542 5.37497 19.3646 5.34199 19.3646C5.32115 19.3542 5.31074 19.3333 5.34199 19.3108C5.3524 19.3004 5.36282 19.2795 5.36282 19.2691C5.3524 19.2361 5.32115 19.1945 5.3524 19.184C5.36282 19.184 5.38539 19.184 5.3958 19.1945C5.41664 19.2257 5.46004 19.2587 5.47046 19.2361C5.49129 19.2153 5.52254 19.2153 5.53469 19.2361C5.54511 19.2483 5.54511 19.2587 5.56594 19.2483C5.58678 19.2361 5.60761 19.2049 5.59719 19.1736C5.58678 19.1406 5.59719 19.099 5.6406 19.0886C5.69442 19.0764 5.75692 19.0764 5.7899 19.099C5.82115 19.1198 5.76733 19.1511 5.72567 19.1302ZM5.37497 18.4063C5.3958 18.4167 5.41664 18.4601 5.40622 18.4809C5.3958 18.5139 5.36282 18.4913 5.36282 18.4497C5.3524 18.4167 5.3524 18.3958 5.37497 18.4063ZM5.56594 18.3646C5.59719 18.3646 5.59719 18.4288 5.56594 18.4288C5.53469 18.4288 5.53469 18.3646 5.56594 18.3646ZM5.59719 18.5451C5.57636 18.566 5.54511 18.5347 5.54511 18.5139C5.55553 18.4913 5.57636 18.4705 5.59719 18.4809C5.60761 18.4913 5.61976 18.5347 5.59719 18.5451ZM5.59719 17.9271C5.61976 17.9063 5.65101 17.9913 5.63018 18.0139C5.61976 18.0139 5.60761 18.0139 5.58678 17.9809C5.58678 17.9497 5.58678 17.9392 5.59719 17.9271ZM5.68226 18.8004C5.70483 18.7795 5.70483 18.8004 5.68226 18.8542C5.67185 18.9063 5.67185 18.9392 5.65101 18.8958C5.63018 18.8646 5.66143 18.8108 5.68226 18.8004ZM5.25692 18.4063C5.21525 18.4167 5.16143 18.4167 5.15101 18.4063C5.1406 18.3958 5.13018 18.3854 5.13018 18.375L5.1406 18.3646C5.17185 18.375 5.20483 18.3542 5.23608 18.3542C5.30032 18.3438 5.30032 18.3958 5.25692 18.4063ZM5.16143 19.0139C5.1406 18.9913 5.16143 18.9497 5.19268 18.9705C5.22567 19.0035 5.19268 19.0451 5.16143 19.0139ZM5.10761 18.7361C5.08678 18.757 5.03469 18.757 5.03469 18.7483C5.03469 18.7257 5.06594 18.6945 5.09719 18.684C5.13018 18.6632 5.13018 18.7049 5.10761 18.7361ZM4.99129 18.684C4.97046 18.684 4.96004 18.684 4.94962 18.6945C4.92705 18.6945 4.91664 18.7361 4.8958 18.7361C4.88539 18.7483 4.87497 18.7361 4.87497 18.7257C4.8524 18.7049 4.87497 18.6632 4.90622 18.6632C4.92706 18.6511 4.94962 18.6632 4.97046 18.6511C4.99129 18.6511 5.00171 18.6511 5.01212 18.6632C5.03469 18.684 5.01212 18.7049 4.99129 18.684ZM4.75865 16.0139C4.75865 15.9705 4.8333 15.9705 4.84372 16.0139C4.85414 16.0556 4.76907 16.0677 4.75865 16.0139ZM4.74824 13.9479C4.7899 13.9271 4.81247 13.9479 4.77949 13.9809C4.75865 14.0017 4.70483 13.9688 4.74824 13.9479ZM4.60935 14.0434C4.59893 14.0868 4.56768 14.0764 4.56768 14.0434C4.56768 14.0017 4.63192 13.9913 4.60935 14.0434ZM4.54511 16.5781C4.51386 16.5885 4.44962 16.599 4.46004 16.5781C4.46004 16.5677 4.47046 16.5451 4.49129 16.5347C4.53469 16.5243 4.56594 16.5139 4.5781 16.5347C4.5781 16.5451 4.56594 16.5677 4.54511 16.5781ZM4.52949 19.3524C4.51907 19.3524 4.50865 19.3524 4.50865 19.342L4.51907 19.3316C4.52948 19.3316 4.52948 19.3316 4.5399 19.342C4.52948 19.342 4.52949 19.3524 4.52949 19.3524ZM4.45483 19.1719C4.44442 19.1511 4.44442 19.0868 4.47567 19.0764C4.50865 19.0556 4.50865 19.0972 4.50865 19.1406C4.49824 19.1823 4.47567 19.2031 4.45483 19.1719ZM4.43921 16.0885C4.40622 16.1406 4.37497 16.1406 4.3958 16.0781C4.41837 16.0035 4.46004 16.0243 4.43921 16.0885ZM4.31594 19.3524C4.27428 19.375 4.24129 19.4167 4.21004 19.4271C4.18921 19.4375 4.15622 19.4167 4.17879 19.3958C4.19962 19.375 4.18921 19.3212 4.16837 19.2778C4.1458 19.2465 4.12497 19.1615 4.17879 19.1406C4.22046 19.1181 4.27428 19.1719 4.24129 19.1823C4.22046 19.1927 4.19962 19.2465 4.22046 19.2778C4.23087 19.3212 4.30553 19.3108 4.30553 19.2778C4.31594 19.2465 4.33851 19.2361 4.35935 19.2674C4.38018 19.2899 4.35935 19.342 4.31594 19.3524ZM4.29511 19.4479C4.27428 19.4375 4.28469 19.4167 4.31594 19.4271C4.34893 19.4375 4.3281 19.4705 4.29511 19.4479ZM4.09893 18.4896C4.1215 18.4462 4.16317 18.4583 4.15275 18.5104C4.15275 18.5642 4.17358 18.6059 4.14233 18.5955C4.10935 18.5955 4.08851 18.5313 4.09893 18.4896ZM4.05553 17.908C4.03469 17.8872 4.04511 17.8333 4.07636 17.8333C4.10935 17.8333 4.1406 17.8767 4.11976 17.8976C4.10935 17.9288 4.08678 17.9288 4.05553 17.908ZM4.09893 13.9583C4.08851 13.9913 4.06768 13.9913 4.06768 13.9583C4.06768 13.9375 4.09893 13.9271 4.09893 13.9583ZM4.17358 16.4392C4.19442 16.4705 4.16317 16.5243 4.13018 16.5451C4.08851 16.5677 4.0781 16.5451 4.10935 16.4931C4.13018 16.4497 4.15101 16.408 4.17358 16.4392ZM4.23608 16.0347C4.26907 16.0556 4.26907 16.1094 4.25865 16.1198C4.23608 16.1302 4.21525 16.1094 4.20483 16.0781C4.184 16.0556 4.21525 16.0139 4.23608 16.0347ZM4.24823 13.8837C4.25865 13.9063 4.24823 13.9167 4.2274 13.8958C4.20483 13.8733 4.2274 13.8524 4.24823 13.8837ZM4.32289 13.9583C4.34372 13.9809 4.31247 14.0122 4.27948 14.0017C4.24824 13.9809 4.2899 13.9375 4.32289 13.9583ZM4.49303 13.9913C4.50344 14.0017 4.48261 14.0226 4.48261 14.0122C4.47219 14.0122 4.48261 13.9809 4.49303 13.9913ZM4.93921 15.908C4.94962 15.8646 4.96004 15.8542 4.98087 15.8854C5.01386 15.9288 5.04511 15.9705 5.03469 16.0035C5.02428 16.0243 5.00344 16.0677 5.02428 16.0781C5.04511 16.099 5.02428 16.1094 4.99303 16.1094C4.97046 16.1094 4.94962 16.0885 4.93921 16.0451C4.92879 16.0035 4.92879 15.9392 4.93921 15.908ZM5.05553 18.3438C5.06594 18.3646 5.06594 18.3854 5.05553 18.3958C5.04511 18.4167 5.01212 18.4288 4.99129 18.4288C4.97046 18.4167 4.92705 18.3854 4.97046 18.3646C5.00171 18.3438 5.04511 18.3316 5.05553 18.3438ZM3.94962 13.9271C3.93921 13.9167 3.96004 13.8958 3.97046 13.9167C3.98261 13.9375 3.96004 13.9479 3.94962 13.9271ZM3.97219 19.316C3.97219 19.316 3.97219 19.3264 3.96178 19.3264C3.96178 19.3264 3.96178 19.3264 3.95136 19.316V19.3056C3.95136 19.2934 3.96178 19.2934 3.97219 19.2934V19.316ZM3.92011 19.0382C3.87671 19.0278 3.88712 18.9861 3.94094 19.007C3.98261 19.0278 3.97219 19.0608 3.92011 19.0382ZM3.93053 20.0504C3.90796 20.0504 3.90796 20.0174 3.92011 20.0174C3.94094 20.0174 3.94094 20.0504 3.93053 20.0504ZM3.93053 18.9427C3.90796 18.9427 3.89754 18.9219 3.92011 18.9219C3.94094 18.9219 3.94094 18.9427 3.93053 18.9427ZM3.88712 18.3403C3.87671 18.3195 3.88712 18.2986 3.90796 18.2986C3.93921 18.2865 3.94962 18.2865 3.96178 18.2986C3.98261 18.3195 3.89754 18.3611 3.88712 18.3403ZM3.87497 13.9688C3.87497 13.9479 3.89754 13.9479 3.89754 13.9688C3.90796 13.9913 3.87497 14.0017 3.87497 13.9688ZM3.85414 13.8958C3.85414 13.8733 3.89754 13.8733 3.89754 13.8958C3.89754 13.9167 3.86455 13.9167 3.85414 13.8958ZM3.80205 19.9323C3.81247 19.9219 3.83504 19.9427 3.83504 19.9531C3.82289 19.9757 3.79164 19.9531 3.80205 19.9323ZM3.73782 18.6493C3.71698 18.6389 3.70483 18.6163 3.69442 18.6059C3.67358 18.5747 3.69442 18.5208 3.71698 18.5313L3.74823 18.5642C3.75865 18.6059 3.80205 18.6389 3.80205 18.6701C3.80205 18.7014 3.76907 18.691 3.73782 18.6493ZM3.79164 19.092C3.78122 19.1024 3.76039 19.1024 3.76039 19.0816C3.76039 19.0608 3.80205 19.0712 3.79164 19.092ZM3.67532 19.4219C3.63192 19.4115 3.60067 19.3906 3.60067 19.3785H3.67532C3.71698 19.3785 3.76039 19.4011 3.76039 19.4219C3.76039 19.4427 3.70657 19.4427 3.67532 19.4219ZM3.59025 20.1233C3.56768 20.1024 3.56768 20.0816 3.60067 20.0816C3.64233 20.0816 3.6215 20.1354 3.59025 20.1233ZM3.56768 18.8264C3.55726 18.8472 3.52601 18.8368 3.5156 18.816C3.5156 18.7934 3.48261 18.7622 3.47219 18.7309C3.46178 18.7083 3.5156 18.6979 3.5156 18.7309C3.5156 18.7517 3.52601 18.7726 3.53643 18.7726C3.55726 18.7726 3.5781 18.7934 3.56768 18.8264ZM3.54685 19.0486C3.54685 19.0486 3.53643 19.0608 3.52601 19.0608C3.5156 19.0712 3.49303 19.0608 3.49303 19.0382C3.49303 19.0174 3.53643 18.9965 3.54685 19.0174V19.0486ZM3.48261 20.1129C3.46178 20.1233 3.45136 20.1129 3.46178 20.1024C3.46178 20.092 3.48261 20.0816 3.50344 20.092C3.5156 20.1024 3.5156 20.1129 3.48261 20.1129ZM3.43053 19.7413C3.41837 19.7101 3.41837 19.6563 3.45136 19.6354C3.48261 19.6129 3.48261 19.6458 3.49303 19.6979C3.49303 19.7413 3.44094 19.7726 3.43053 19.7413ZM3.44094 19.9531C3.41837 19.9965 3.37671 19.9653 3.38712 19.9323C3.40796 19.8906 3.46178 19.9115 3.44094 19.9531ZM3.29164 19.7622C3.29164 19.7622 3.31247 19.7517 3.31247 19.7622C3.30205 19.7726 3.29164 19.7726 3.29164 19.7622ZM3.31247 19.4427C3.34546 19.4323 3.39754 19.4323 3.41837 19.4531C3.44094 19.4636 3.44094 19.507 3.40796 19.5174C3.37671 19.5174 3.3333 19.507 3.30205 19.4965C3.2708 19.4757 3.28122 19.4531 3.31247 19.4427ZM3.24823 18.6771C3.2274 18.6875 3.19615 18.6875 3.17358 18.6875C3.15275 18.6771 3.15275 18.6441 3.18573 18.6337C3.20657 18.6129 3.24824 18.6024 3.2708 18.6129C3.28122 18.6233 3.2708 18.6563 3.24823 18.6771ZM3.25865 18.9861C3.24824 18.9965 3.23782 18.9757 3.24823 18.9636C3.25865 18.9531 3.28122 18.9757 3.25865 18.9861ZM3.24823 19.0608C3.23782 19.0486 3.23782 19.0382 3.24823 19.0486C3.25865 19.0486 3.24823 19.0712 3.24823 19.0608ZM3.19615 19.1233C3.19615 19.1024 3.20657 19.1024 3.2274 19.1233C3.23782 19.1458 3.20657 19.1458 3.19615 19.1233ZM3.20657 19.1979C3.19615 19.2205 3.16317 19.2083 3.17358 19.1875C3.19615 19.1771 3.21698 19.1875 3.20657 19.1979ZM3.16317 19.4011C3.16317 19.3785 3.20657 19.3681 3.20657 19.3906C3.21698 19.4115 3.16317 19.4115 3.16317 19.4011ZM2.85761 15.0799C2.79337 15.0903 2.77254 15.0695 2.80379 15.0486C2.83504 15.026 2.83504 15.0052 2.82462 14.9948C2.80379 14.9844 2.80379 14.9201 2.84719 14.8889C2.88886 14.8455 2.96351 14.8889 2.98435 14.941C2.99476 14.9844 2.92011 15.0695 2.85761 15.0799ZM3.20657 18.474C3.2274 18.474 3.24823 18.507 3.24823 18.5382C3.23782 18.5712 3.20657 18.5816 3.19615 18.5608C3.18574 18.5278 3.19615 18.4861 3.20657 18.474ZM3.31247 19.1129C3.31247 19.092 3.34546 19.1024 3.34546 19.1129C3.34546 19.1337 3.30205 19.1337 3.31247 19.1129ZM3.38712 18.7205C3.39754 18.7083 3.41837 18.7517 3.39754 18.7517C3.37671 18.7517 3.36629 18.7413 3.38712 18.7205ZM3.38712 19.3576C3.36629 19.3472 3.39754 19.3264 3.40796 19.3368C3.41837 19.3472 3.39754 19.3785 3.38712 19.3576ZM3.40796 18.8472C3.38712 18.8368 3.38712 18.816 3.41837 18.8264C3.44094 18.8264 3.43053 18.8576 3.40796 18.8472ZM3.52601 18.5608C3.53643 18.6024 3.5156 18.6129 3.49303 18.5712C3.47219 18.5382 3.52601 18.5174 3.52601 18.5608ZM3.65275 19.007C3.61108 19.0174 3.60067 18.9636 3.63192 18.9323C3.66317 18.9011 3.69615 18.9861 3.65275 19.007ZM3.58851 18.3611C3.59893 18.3507 3.65275 18.3507 3.67358 18.382C3.684 18.3941 3.66317 18.4045 3.65275 18.4358C3.63192 18.4583 3.61976 18.5208 3.59893 18.5417C3.5781 18.5417 3.56768 18.5313 3.56768 18.5C3.56768 18.4462 3.56768 18.382 3.58851 18.3611ZM3.81247 18.2552L3.77948 18.2865C3.75865 18.2986 3.74823 18.2865 3.74823 18.2656C3.74823 18.2448 3.81247 18.2344 3.81247 18.2552ZM2.5156 15.5295C2.46178 15.5504 2.42011 15.5087 2.42011 15.4861C2.42011 15.4653 2.45136 15.4549 2.47219 15.4653C2.48261 15.4861 2.5156 15.4861 2.53643 15.4757C2.55726 15.4653 2.5781 15.4549 2.59025 15.4757C2.60067 15.4861 2.55726 15.5191 2.5156 15.5295ZM2.19615 15.4965C2.17532 15.4861 2.15275 15.5295 2.13192 15.5608C2.11108 15.5833 2.07983 15.5608 2.08851 15.5399C2.10067 15.5191 2.05726 15.5087 2.0156 15.5191C1.98261 15.5399 2.00518 15.4757 2.05726 15.4445C2.07983 15.434 2.10067 15.4236 2.1215 15.4236C2.15275 15.4236 2.19615 15.4549 2.20657 15.4653C2.21698 15.4861 2.20657 15.4965 2.19615 15.4965ZM2.07462 18.1354C2.10761 18.125 2.11803 18.1771 2.08504 18.1771C2.05379 18.1771 2.04337 18.1354 2.07462 18.1354ZM2.06421 18.3681C2.03296 18.4115 1.99997 18.4531 1.98955 18.4219C1.97914 18.4011 2.02254 18.3576 2.04337 18.316C2.07462 18.283 2.12844 18.2413 2.13886 18.2726C2.14928 18.2934 2.09546 18.3368 2.06421 18.3681ZM1.68053 18.1649C1.62844 18.1545 1.56421 18.1441 1.56421 18.1649C1.56421 18.1858 1.53296 18.1858 1.5208 18.1545C1.49997 18.1111 1.48955 18.0799 1.46872 18.0799C1.4583 18.0695 1.46872 18.0156 1.5208 17.974C1.57462 17.9201 1.61803 17.941 1.56421 17.9844C1.5208 18.0365 1.53296 18.1007 1.57462 18.0799C1.59546 18.059 1.61803 18.0365 1.62844 18.0156L1.65969 17.9844C1.67011 17.9618 1.71351 18.0052 1.69268 18.0261C1.68053 18.0486 1.65969 18.059 1.67011 18.0799C1.68053 18.1007 1.69268 18.1111 1.71351 18.1215C1.73435 18.1337 1.72393 18.1858 1.68053 18.1649ZM1.38192 17.9254C1.3281 17.9566 1.30726 17.9254 1.36108 17.9028C1.40275 17.882 1.38192 17.8507 1.33851 17.8507C1.29685 17.8611 1.29685 17.8177 1.33851 17.8177C1.3715 17.8177 1.43574 17.9028 1.38192 17.9254ZM1.29337 17.9566C1.27254 17.967 1.26039 17.967 1.27254 17.934C1.28296 17.9028 1.31421 17.934 1.29337 17.9566ZM4.05205 9.45487C4.05205 9.43403 4.07289 9.42362 4.07289 9.44445C4.06247 9.46529 4.05205 9.46529 4.05205 9.45487ZM3.96178 10.0052C3.93921 10.0156 3.92879 9.97223 3.93921 9.97223C3.96178 9.97223 3.97219 9.9948 3.96178 10.0052ZM3.90275 9.49827C3.88192 9.53126 3.8281 9.52084 3.8281 9.48785C3.8281 9.46702 3.86108 9.44619 3.88192 9.44619C3.90275 9.43577 3.92532 9.46702 3.90275 9.49827ZM3.82289 9.92015C3.8333 9.88716 3.86455 9.89931 3.86455 9.92015C3.86455 9.94098 3.80205 9.94098 3.82289 9.92015ZM3.79164 9.73785C3.74997 9.7257 3.73955 9.68404 3.79164 9.68404C3.83504 9.69445 3.82462 9.74827 3.79164 9.73785ZM3.78643 9.37154C3.79685 9.4132 3.75344 9.4132 3.75344 9.38195C3.74303 9.33855 3.77601 9.33855 3.78643 9.37154ZM3.64754 9.49827C3.60587 9.52084 3.59546 9.47744 3.61629 9.4566C3.64754 9.43577 3.68053 9.46702 3.64754 9.49827ZM3.53122 9.44619C3.51039 9.4566 3.48782 9.42362 3.51039 9.4132C3.5208 9.4132 3.54164 9.43577 3.53122 9.44619ZM3.34025 9.31772C3.3281 9.31772 3.34025 9.29688 3.35067 9.29688C3.3715 9.3073 3.35067 9.32813 3.34025 9.31772ZM3.89233 9.31772C3.89233 9.33855 3.88192 9.33855 3.8715 9.32813C3.86108 9.31772 3.88192 9.3073 3.89233 9.31772ZM17.6944 14.1632C17.3472 13.092 16.7465 12.2882 16.3003 11.9167C16.5434 12.6024 16.217 13.9479 15.8021 14.5799C15.6493 14.816 15.4271 15.0695 15.1875 15.2448C14.8159 15.5174 14.3698 15.5504 14.3437 15.599C14.4514 15.3976 14.6475 15.1181 14.8177 14.7049C14.9618 14.3576 15.0903 13.9028 15.085 13.434C15.0781 12.6545 14.8055 11.7396 14.3906 10.8594C13.9323 9.88542 13.2604 8.91841 12.8003 8.39237C12.4618 8.00695 12.1875 7.50174 11.8941 7.17188C11.6701 6.92015 11.3107 6.35938 10.9774 5.75522C10.4479 4.79515 9.9531 3.66494 9.91317 3.06772C9.85935 2.2691 9.80379 1.60591 10.0087 0.690979C9.66838 0.710076 8.68574 1.77952 8.46351 2.10417C8.34199 2.27952 7.83678 2.96702 7.60935 3.38195C7.02428 4.45313 6.75518 5.50695 6.71872 6.74653C6.69094 7.68751 6.79337 8.65799 6.96872 9.26042C7.03643 9.48785 7.22393 10.3125 7.39407 10.8229C7.54685 11.2726 7.58331 11.2205 7.72567 11.7743C7.5399 11.3802 7.1649 10.842 6.8715 10.5868C6.62844 10.3715 6.34893 10.1076 6.00171 9.88369C5.3715 9.47917 3.7465 8.9566 2.69094 9.40626C3.76212 10.0191 4.2656 10.0695 4.94615 11.1858C5.27428 11.7257 5.48087 12.3438 5.2899 12.9844C5.22219 13.2153 5.1024 13.4358 4.934 13.5764C4.60414 13.8507 4.11976 13.9063 3.69094 13.7413C3.27775 13.5816 2.88192 13.2448 2.68747 12.9826C2.51733 12.75 2.37324 12.3993 2.37324 11.7413C2.09025 12.224 1.65275 12.9531 1.60067 13.3854C1.5833 13.5295 1.50171 13.6736 1.47393 13.7865C1.3906 14.1354 1.3281 14.3576 1.22567 14.7934C1.15969 15.0729 1.12671 15.3663 1.12671 16.0174C1.12671 16.6181 1.03469 17.2049 1.15101 17.8142C1.28122 18.4983 1.56768 19.4045 1.61108 19.6476C1.67358 19.9809 3.00692 21.9271 3.63539 22.4392C3.63539 22.4375 3.75865 22.2778 3.96698 22.066C4.13539 21.8941 4.36976 21.691 4.56421 21.4931C4.84546 21.2066 5.1024 20.9462 5.19442 20.8542C5.69615 20.3524 6.33157 19.9722 6.59893 19.2917C6.7083 19.0122 6.76386 18.7292 6.77428 18.5556C6.79164 18.2691 6.809 17.9601 6.94615 17.7049C7.10414 17.4063 7.55726 16.9479 7.81421 16.7535C7.90275 16.6927 8.65275 15.9358 8.85067 15.7448C9.33678 15.2778 9.90275 14.5382 10.2812 14.2587C10.4705 14.1198 11.0468 13.5469 11.1441 13.4358C11.25 13.684 10.4896 14.5504 10.3073 14.75L8.66837 16.533C8.36282 16.8403 7.85067 17.3629 7.85067 17.7795C7.85067 18.1007 7.99824 18.2552 8.08851 18.3872C8.36282 18.7934 8.80379 18.7865 9.13886 18.592C9.48261 18.3924 10.0347 17.8663 10.4739 17.4306C10.6649 17.2413 10.8385 17.0972 10.9791 16.9774C11.0069 16.9531 11.0312 16.9236 11.0607 16.9028C11.4531 16.6406 11.533 16.4826 11.8368 16.2135C12.2708 15.8316 12.6354 15.599 13.1771 15.3698C13.0382 15.4948 12.9687 15.5903 12.8906 15.6424C12.4653 15.9254 12.1753 16.4688 11.835 16.7396C11.3889 17.0955 11.0642 17.4931 10.6475 17.8854C10.3403 18.1754 10.0798 18.3993 9.97393 18.5573C9.63886 19.0608 9.37497 19.099 9.13713 19.3958C9.08678 19.4375 9.02775 19.4844 8.96351 19.5295C8.99476 19.5399 9.02601 19.5712 9.00518 19.5816H8.96351C8.94268 19.5816 8.93226 19.5729 8.92358 19.5642C8.92011 19.5729 8.9149 19.5833 8.90969 19.5972C8.87844 19.6493 8.84719 19.6719 8.83678 19.6076C8.81421 19.6181 8.79337 19.6285 8.77254 19.6389C8.62844 19.7031 8.43226 19.7483 8.22914 19.7674C7.79164 19.8056 7.41664 19.8021 7.02428 20.0642C6.71699 20.2691 6.4583 20.5833 6.24129 20.8004L4.72393 22.3177L2.28122 24.7587C2.89233 24.6545 3.31942 24.4358 3.90275 24.2396C4.16317 24.1511 4.37497 24.0174 4.42011 23.9931C4.71004 23.8455 4.93053 23.8629 5.23782 23.7379C5.27949 23.7379 6.72567 24.4445 7.02601 24.5365C7.83678 24.7813 8.94094 24.8507 9.78296 24.8542C10.5173 24.7743 11.2118 24.6458 11.7986 24.4601C13.1093 24.0434 14.8541 22.8802 15.8559 21.9861C16.3107 21.5833 16.6389 20.7083 16.7778 20.5434C17.2743 19.9462 17.6146 19.0434 17.8177 18.1302C17.9566 17.5 18.0312 16.8646 18.0434 16.3229C18.0521 15.9618 17.9843 15.0556 17.6944 14.1632Z" fill="#C70E16"/>
</g>
</svg>
